<svg xmlns="http://www.w3.org/2000/svg" width="2352" height="1191.702" viewBox="0 0 2352 1191.702">
  <g id="Groupe_35" data-name="Groupe 35" transform="translate(5958 3349)">
    <rect id="Rectangle_10" data-name="Rectangle 10" width="2352" height="1191.702" transform="translate(-5958 -3349)" fill="#fff"/>
    <g id="Groupe_33" data-name="Groupe 33" transform="translate(-5380 -1432)">
      <path id="Tracé_1" data-name="Tracé 1" d="M15.966,282.38l-2.192-11.209c-.417-1.911-.366-3.987-1.256-5.732q0-.654,0-1.309l1.548-2.616c.093.036.159,0,.2-.114l3.832-2.129.741-.256a3.543,3.543,0,0,0,2.358-.678l.756-.152a3.409,3.409,0,0,0,1.982-.325,5.067,5.067,0,0,0,2.634-.384,5.069,5.069,0,0,0,2.4-.167l1.863-.092a3.847,3.847,0,0,0,2.75-.367l2.661-.124a24.7,24.7,0,0,0,7.066-.577l.661-.006a9.161,9.161,0,0,0,4.664-.378l4.284-.311,1.158.048a1.39,1.39,0,0,0,1.538-.161A5.113,5.113,0,0,0,58,255.123a3.508,3.508,0,0,0,2.263-.106,34.556,34.556,0,0,0,7.358-.5,5.1,5.1,0,0,0,2.4-1.634l.344-.232a4.758,4.758,0,0,0,2.354-2.273l.689-.8a9.62,9.62,0,0,0,2.219-2.452.274.274,0,0,0,.193-.279,6.835,6.835,0,0,0,2.213-2.644l.468-.352a4.929,4.929,0,0,0,1.855-2.1,2.915,2.915,0,0,0,1.217-1.386,1.4,1.4,0,0,0,.836-.969c4.036-4.487,8.046-9.013,12.122-13.443,1.538-1.672,2.776-3.857,4.8-4.752l2.315-.536,2.281-.149A25.565,25.565,0,0,0,110.98,220l.678,0a17.742,17.742,0,0,0,6.209-.436l.751-.067a3.1,3.1,0,0,0,2.387-.117l1.13-.032c2.136.072,4.284.449,6.383-.412l6.779-.18a4.005,4.005,0,0,0,2.323-.044l2.3-.044,1.184.047a19.75,19.75,0,0,0,6.546-.145l1.941-.057a2.7,2.7,0,0,0,2.7.059l2.335-.006a21.184,21.184,0,0,0,6.966.18l2.709.023.371.025a14.6,14.6,0,0,0,4.055.186c.715.779,1.593.437,2.394.509,2.548.231,5.114.286,7.5,1.658,4.516,3.722,7.956,8.958,11.842,13.561,4.411,5.225,8.7,10.61,13.051,15.92a4.6,4.6,0,0,0,2.119,1.625,2.142,2.142,0,0,0,1.866,1.052,32.627,32.627,0,0,0,7.49.524l1.521.139a8.627,8.627,0,0,0,3.5.4l2.3.136a4.483,4.483,0,0,0,2.349.3l2.282.272a2.972,2.972,0,0,0,2.341.341c3.355.7,6.749,1.155,9.977,2.626l-.024-.033c.326,1.128-.2,2.2-.137,3.31a2.881,2.881,0,0,0-.395,2.038l-.072.955a5.726,5.726,0,0,0-.441,2.928,7.945,7.945,0,0,0-.488,2.917,5.367,5.367,0,0,0-.481,3.015,9.837,9.837,0,0,0-.528,3.366,1.072,1.072,0,0,0-.289.99,23.558,23.558,0,0,0-.614,4.861.21.21,0,0,0-.083.266,1.871,1.871,0,0,0-.343,1.776l-.158,1.411a11.557,11.557,0,0,0-.77,4.444,11.074,11.074,0,0,1-.987,3.2,7.032,7.032,0,0,0-1.562,2.265,11.172,11.172,0,0,1-3.355,2.025,16.261,16.261,0,0,0-4.662,1.366l-1.55.448-2.415.261a5.978,5.978,0,0,0-.526-2.358,5.646,5.646,0,0,0-.544-2.841c-1.056-2.534-1.281-5.554-2.839-7.794a1.428,1.428,0,0,0-.522-1.26l-.272-.412a9.183,9.183,0,0,0-2.156-3.334l-.291-.348a6.3,6.3,0,0,0-2.42-2.552,14.146,14.146,0,0,0-6.988-3.809.948.948,0,0,0-1.16-.138l-1.54-.279c-1.56-.7-3.1-.313-4.647.114a5.618,5.618,0,0,0-2.664.377,9.349,9.349,0,0,0-5.083,2.04c-4.151,2.267-7.146,5.954-8.723,11.384-1.205,2.712-1.367,5.71-1.485,8.719l-.049.112a9.618,9.618,0,0,1-1.773,2.5.365.365,0,0,0-.308.115c-2.51,1.143-5.171.458-7.73,1.024h-.8a6.089,6.089,0,0,0-3.108.037l-2.651,0a3.739,3.739,0,0,0-2.382.031l-2.251.017a4.231,4.231,0,0,0-2.393.005l-2.628.035a3.731,3.731,0,0,0-2.41.029l-1.841.015c-5.078-.332-10.156-.092-15.234,0-3.972.072-7.955-.251-11.916.406a4.05,4.05,0,0,0-2.246.022,3.42,3.42,0,0,0-2.409.037,4.693,4.693,0,0,0-2.627.063,3.494,3.494,0,0,0-2.385-.014,3.149,3.149,0,0,0-2.238.025,3.171,3.171,0,0,0-2.429.015,4.971,4.971,0,0,0-2.642.062,2.044,2.044,0,0,0-1.968-.007.216.216,0,0,0-.349.038,1.553,1.553,0,0,0-1.557.06c-.371-.638-.78-.3-1.183-.072a2.815,2.815,0,0,0-1.9.053,5.844,5.844,0,0,0-2.713.015A2.517,2.517,0,0,0,91.6,302a4.555,4.555,0,0,0-2.323.037,38.571,38.571,0,0,0-9.647.052l-2.356.03c-.254-.3-.5-.39-.724.048l-1.921.091a2.9,2.9,0,0,0-2.381,0l-2.345.094a3.225,3.225,0,0,0-2.235-.011l-2.728-1.494c-.175-.434-.489-.344-.782-.333a2.1,2.1,0,0,0-1.186-1.426,3.877,3.877,0,0,0-1.046-1.7l-.281-1.226a4.393,4.393,0,0,0-.775-2.82c.074-.7-.348-1.118-.6-1.632-.614-2.237-1.05-4.574-2.263-6.477-1.741-3.9-3.87-7.271-7.388-8.771-.075-.683-.443-.509-.779-.426-.3-.488-.5-1.184-1.17-.967l-.925-.155a1.661,1.661,0,0,0-1.831-.525l-1.14-.136c-.232-.372-.471-.363-.714-.017l-.786.171a4.3,4.3,0,0,0-2.69.089,1.119,1.119,0,0,0-1.462.306,13.219,13.219,0,0,0-4.362,1.354,3.386,3.386,0,0,0-1.871,1.052,13.179,13.179,0,0,0-5.406,5.225,11.687,11.687,0,0,0-2.515,5.129c-.992,1.666-.974,3.729-1.382,5.625q-.008,2.2-.015,4.395c-.228,1.458-1.394,1.861-2.017,2.875l.013.009a1.675,1.675,0,0,1-1.955-.916c-.383-1.219-.237-2.653-.949-3.738l-.222-1.144a6.947,6.947,0,0,0-.488-2.5l-.314-1.9a9.271,9.271,0,0,0-.759-3.437L16.7,285.9A9.023,9.023,0,0,0,15.966,282.38Zm121.892-31.936a.733.733,0,0,0,.92.233,1.047,1.047,0,0,0,1.2.119l2.625.009a4.358,4.358,0,0,0,2.4-.009l2.624.009a3.2,3.2,0,0,0,2.016-.009l2.624.009a4.358,4.358,0,0,0,2.4-.009l2.624.009a3.2,3.2,0,0,0,2.016-.009l2.624.009a4.358,4.358,0,0,0,2.4-.009l2.624.009a3.2,3.2,0,0,0,2.016-.009l2.624.009a4.358,4.358,0,0,0,2.4-.009l2.624.009,1.966.053c.922.142,1.86.448,2.689-.406l.772-.438c.972-.385,1.265-1.052.552-2.135a3.574,3.574,0,0,0-.955-1.68.546.546,0,0,0-.432-.639,105.725,105.725,0,0,0-5.6-9.254,7.778,7.778,0,0,0-1.693-2.8l-.021-.033a10.7,10.7,0,0,0-1.886-3.244.281.281,0,0,0-.146-.266,8.293,8.293,0,0,0-1.515-2.459,2.741,2.741,0,0,0-1.388-1.743,1.667,1.667,0,0,0-1.607-1.128c-.413-.618-.972-.556-1.524-.526a.8.8,0,0,0-1.182-.055,7.446,7.446,0,0,0-3.059-.023,1.4,1.4,0,0,0-1.581.025,7.735,7.735,0,0,0-3.059-.025,1.4,1.4,0,0,0-1.581.025,9.578,9.578,0,0,0-3.446-.025,1.4,1.4,0,0,0-1.581.025,7.735,7.735,0,0,0-3.059-.025,1.4,1.4,0,0,0-1.581.025,9.578,9.578,0,0,0-3.446-.025,1.4,1.4,0,0,0-1.581.025,17,17,0,0,0-2.277-.113c-1.1.085-2.222.267-2.266,2.175-.346,6.718-.083,13.443-.131,20.165a3.473,3.473,0,0,0,.35,2.308,2.14,2.14,0,0,0,1.474,1.822ZM114.432,224.7l-.8.044a5.651,5.651,0,0,0-2.682.04l-1.965.034a5.584,5.584,0,0,0-2.649.056c-1.182-.118-2.377-.462-3.5.349a2.069,2.069,0,0,0-1.593.818,2.352,2.352,0,0,0-1.606,1.468l-.727.952a3.994,3.994,0,0,0-1.59,1.989l-.731.948a3.827,3.827,0,0,0-1.58,2,2.809,2.809,0,0,0-1.136,1.414,3.04,3.04,0,0,0-1.174,1.53c-2.878,3.59-5.772,7.161-8.619,10.788-.553.7-1.435,1.447-.945,2.679.48,1.208,1.48,1.074,2.387,1.075,5.335.006,10.671.034,16.006.038,8.164.007,16.328.029,24.492-.017,2.554-.015,3.956-1.977,3.934-5.231a5.533,5.533,0,0,0,.01-2.415,10.392,10.392,0,0,0,.038-3.431,5.1,5.1,0,0,0,.007-2.969,10.382,10.382,0,0,0-.051-3.428,5.591,5.591,0,0,0,.007-2.414,7.979,7.979,0,0,0-.059-3.453c-.035-1.385-.49-2.387-1.591-2.8a2.871,2.871,0,0,0-2.648-.434,3.558,3.558,0,0,0-2.4.078l-2.224.1A19.655,19.655,0,0,0,114.432,224.7Z" transform="translate(644.501 -1150.259)" fill="#51bcda" stroke="#51bcda" stroke-width="1"/>
      <path id="Tracé_2" data-name="Tracé 2" d="M236.548,385.7l-2.667,0a4.164,4.164,0,0,0-2.361,0l-2.667,0a3.026,3.026,0,0,0-1.974,0l-2.667,0a4.164,4.164,0,0,0-2.361,0l-2.667,0a3.026,3.026,0,0,0-1.974,0l-2.667,0a4.164,4.164,0,0,0-2.361,0l-2.667,0a3.026,3.026,0,0,0-1.974,0l-2.667,0a4.163,4.163,0,0,0-2.36,0l-2.668,0a3.024,3.024,0,0,0-1.973,0l-2.668,0a4.162,4.162,0,0,0-2.36,0l-2.668,0a3.024,3.024,0,0,0-1.973,0l-2.668,0a4.162,4.162,0,0,0-2.36,0l-2.668,0a3.024,3.024,0,0,0-1.973,0l-2.668,0a4.161,4.161,0,0,0-2.36,0l-2.668,0a3.024,3.024,0,0,0-1.973,0l-2.668,0a4.162,4.162,0,0,0-2.36,0l-2.668,0a3.024,3.024,0,0,0-1.973,0l-2.668,0a4.162,4.162,0,0,0-2.36,0l-2.668,0a3.024,3.024,0,0,0-1.973,0l-2.668,0a4.162,4.162,0,0,0-2.36,0l-2.668,0a3.024,3.024,0,0,0-1.973,0l-2.668,0a4.162,4.162,0,0,0-2.36,0l-2.668,0a3.024,3.024,0,0,0-1.973,0l-2.668,0a4.162,4.162,0,0,0-2.36,0l-2.668,0a3.024,3.024,0,0,0-1.973,0l-2.668,0a4.162,4.162,0,0,0-2.36,0l-2.668,0a3.024,3.024,0,0,0-1.973,0l-2.668,0a4.162,4.162,0,0,0-2.36,0l-2.667,0a3.025,3.025,0,0,0-1.973,0l-2.667,0a4.164,4.164,0,0,0-2.361,0l-2.667,0a3.025,3.025,0,0,0-1.973,0l-2.667,0a4.164,4.164,0,0,0-2.361,0l-2.667,0a3.025,3.025,0,0,0-1.973,0l-2.667,0a4.164,4.164,0,0,0-2.361,0l-2.667,0a3.025,3.025,0,0,0-1.973,0l-2.667,0a4.164,4.164,0,0,0-2.361,0l-2.667,0a3.025,3.025,0,0,0-1.973,0l-2.667,0a4.164,4.164,0,0,0-2.361,0l-2.649-.029a2.874,2.874,0,0,0-2.009,0l-2.649.037a4.164,4.164,0,0,0-2.361,0l-2.667,0a3.024,3.024,0,0,0-1.973,0l-2.667,0a4.164,4.164,0,0,0-2.361,0l-2.667,0a3.024,3.024,0,0,0-1.973,0l-2.667,0a4.164,4.164,0,0,0-2.361,0l-2.667,0a3.025,3.025,0,0,0-1.973,0l-2.667,0a4.193,4.193,0,0,0-2.36-.006,3.079,3.079,0,0,1-3.235-2.58l.268-2.907.708-.97.719-.3,1.187-.343,2.679-.009,2.349-.015,2.292.015,2.349-.015a6.794,6.794,0,0,0,2.874-.017l4.362.25c-1.117-1.234-1.716-2.121-2.615-2.547-.5-.675-.756-1.618-1.454-2.063a2.483,2.483,0,0,0-.836-1.47c-.492-1.871-2.01-3.135-1.961-5.325a3.564,3.564,0,0,0-.28-1.913q.017-3.227.033-6.455a.262.262,0,0,0-.005-.367.206.206,0,0,0,.094-.27,2.4,2.4,0,0,0,.393-1.819,18.627,18.627,0,0,1,1.531-4.283,6.256,6.256,0,0,0,1.439-2.375l0-.013,2.482-2.891.558-.54a2.173,2.173,0,0,0,1.243-1.011l4.869-2.316,1.969-.311h2.3l2.363.318,4.9,2.286a1.99,1.99,0,0,0,1.225.965l.6.563,2.1,2.381.324.48,1.654,2.879a5.056,5.056,0,0,0,.963,2.342l.055.066.787,3.055q.121,1.427.243,2.853-.029,1.72-.057,3.441l-.4,2.947a36.191,36.191,0,0,1-2.085,5.657l-.756,1.114-1.449,2.092-2.179,2.052.163.456,3.563-.207a7.065,7.065,0,0,0,3.066-.025,3.114,3.114,0,0,0,1.965.018,5.153,5.153,0,0,0,2.494-.018,3.529,3.529,0,0,0,2.147.018l2.679.015,2.349-.015,2.292.015,2.349-.015,2.679.015,2.349-.015,2.292.015,2.349-.015,2.679.015,2.349-.015,2.292.015,2.349-.015,2.679.015,2.349-.015,2.292.015,2.349-.015,2.679.015,2.349-.015,2.292.015,2.349-.015,2.679.015,2.349-.015,2.292.015,2.349-.015,2.679.015,2.349-.015,2.292.015,2.349-.015,2.679.015,2.349-.015,2.292.015,2.349-.015,2.679.015,2.349-.015,2.292.015,2.349-.015,2.679.015,2.349-.015,2.292.015,2.349-.015,2.679.015,2.349-.015,2.292.015,2.349-.015,2.679.015,2.349-.015,2.292.015,2.349-.015,2.679.015,2.349-.015,2.292.015a1.394,1.394,0,0,0,1.525-.281l-1.484-1.184-.379-.444a5.137,5.137,0,0,0-1.549-2.011l-.828-1.379-1.6-3.928L185.322,368l.029.025-.618-3.483a9.717,9.717,0,0,0,0-3.507q.14-1.476.28-2.951a4.255,4.255,0,0,0,.609-2.366l.3-1.049a6.623,6.623,0,0,0,1.1-2.482,22.377,22.377,0,0,1,5.839-6.887l2.656-1.5.862-.315a.994.994,0,0,0,1.159-.307l2.279-.345,2.349,0,2.021.308a18.285,18.285,0,0,1,10.779,9.551,17.166,17.166,0,0,0,1.341,3.722,5.017,5.017,0,0,0,.541,2.172q.063.728.126,1.456l-.026,4.92q-.06.726-.12,1.45a2.105,2.105,0,0,0-.366,1.477l-.539,1.719-1.492,3.551-.013-.009-2.566,3.573-.395.522a2.29,2.29,0,0,0-1.42,1.355,1.421,1.421,0,0,0,1.424-.036l3.054.023,2.348-.015,2.293.015,2.348-.015,2.679.015,2.348-.015,2.293.015,2.348-.015,2.679.015,2.348-.015,1.915.109,1.865,1.584q.215,1.154.429,2.308a8.813,8.813,0,0,1-1.388,2.651l-.51.336ZM50.232,367.962h-.011a7.683,7.683,0,0,0,1.673-5.02l-.015-1.376a8.544,8.544,0,0,0-3.28-6.82,1.427,1.427,0,0,0-1.133-.639,2.2,2.2,0,0,0-1.961-.845c-1.83-.848-3.464-.141-5.041,1.019l-.372.326a4.947,4.947,0,0,0-2.38,2.88l-.007.015a5.886,5.886,0,0,0-1.024,3.543,8.858,8.858,0,0,0,1.655,7.017,3.546,3.546,0,0,0,2.165,2.249,5.71,5.71,0,0,0,7.341.015A3.6,3.6,0,0,0,50.232,367.962Zm156.617.049q.357-.108.336-.572c3.167-5.716.517-13.177-5.015-14.121a1.676,1.676,0,0,0-1.95-.067c-4.1.208-7.095,4.429-7.01,9.6.072,4.454,3.754,9.579,8.112,8.6a1.767,1.767,0,0,0,2.173-.459c.347,0,.589-.174.665-.63.323.069.64.123.711-.449C205.851,369.815,206.424,369.036,206.849,368.011Z" transform="translate(642.617 -1213.702)" fill="#51bcda"/>
      <path id="Tracé_3" data-name="Tracé 3" d="M121.759,202.511l1.079-1,2.385-1.611.721-.316a1.324,1.324,0,0,0,1.322-.472l.095.058.08-.087,2.721-.074,4.677,1.8c3.939,3.285,5.861,7.8,5.279,13.849a3.761,3.761,0,0,0-.693,2.433l-.292,1.023-1.287,2.4a11.57,11.57,0,0,1-8.052,5.006l-2.388-.188-2.272-.753a23.231,23.231,0,0,1-4.333-4.019c-.053-.333-.21-.524-.478-.563l-.556-.719a2.613,2.613,0,0,0-.541-1.683l-.484-1.9q-.23-2.255-.46-4.511.092-.725.184-1.45l1.323-4.313.676-1.124A3.674,3.674,0,0,0,121.759,202.511Z" transform="translate(579.637 -1140.303)" fill="#f17e5d"/>
      <path id="Tracé_4" data-name="Tracé 4" d="M346.837,151.638a19.977,19.977,0,0,1,2.5-5.8,3.263,3.263,0,0,0,1.348-1.531l3.923-2.282,2.274-.371,2.656.38,2.224.907,0,.032c.612.983,1.567,1.3,2.354,1.94l.364.406,1.914,3.063a.376.376,0,0,0,.072.328,8.5,8.5,0,0,0,.877,2.938q.116,1.658.231,3.316-.053.539-.105,1.078l-.138.964c-.022.163-.044.326-.066.488a19.554,19.554,0,0,1-2.791,5.724,2.277,2.277,0,0,0-1.057,1.121c-5.279,3.642-9.613,3.262-13.669-1.117a19.228,19.228,0,0,1-1.775-2.828l-1.054-2.918-.27-2.881Z" transform="translate(439.583 -1111.035)" fill="#fcc468"/>
      <path id="Tracé_5" data-name="Tracé 5" d="M482.447,179.142a13.156,13.156,0,0,1-2.7,3.5l-2.54,1.62-2.075.518a2.924,2.924,0,0,0-2.022.031l-2.3-.688-2.321-1.549c-1.579-1.391-2.538-3.439-3.574-5.4q-.249-1.434-.5-2.867.029-1.772.057-3.543.343-1.354.685-2.707a2.653,2.653,0,0,0,.681-1.592l1.307-1.938a1.737,1.737,0,0,0,.977-1.013,7.787,7.787,0,0,0,2.388-1.914l-.008.011a4.464,4.464,0,0,0,2.652-.555h1.927l2.7.828c.455.431.963.2,1.455.186.165,1.732,1.483,2.094,2.28,3.075l.853,1.334a.608.608,0,0,0,.108.435l.319.526.025-.05.993,3.361a6.864,6.864,0,0,0,.133,3.016q-.3,1.677-.605,3.354A3.34,3.34,0,0,0,482.447,179.142Z" transform="translate(367.36 -1120.934)" fill="#6bd098"/>
      <path id="Tracé_6" data-name="Tracé 6" d="M44.441,234.155l-.376-.12-2.669-5.4q-.2-1.709-.4-3.418l.358-2.954c2.516-7.986,8.061-10.447,14.686-6.52l.772.727,1.934,2.453-.014-.019c.117,1.281.858,2.215,1.176,3.385q.142,1.742.284,3.484-.174,1.425-.348,2.85a5.049,5.049,0,0,0-.968,2.519,16.466,16.466,0,0,1-2.834,3.761,5.094,5.094,0,0,0-2.3,1.418l-.761.138-.376.07-1.1.269a4.3,4.3,0,0,0-2.409-.014l-2.654-1.017Z" transform="translate(627.035 -1147.908)" fill="#6bd098"/>
      <path id="Tracé_7" data-name="Tracé 7" d="M505.981,223.616l.276-1.862,1.2-3.068.887-1.366a1.476,1.476,0,0,0,.857-.966l1.067-1.017L512.6,214.1l.692-.139a.86.86,0,0,0,1.183-.209l.757-.114a4.5,4.5,0,0,0,2.407.419l1.856.92a2.117,2.117,0,0,0,1.327.893l1.106,1.324a6.346,6.346,0,0,0,1.365,2.135c2.6,6.4.478,12.226-3.335,15.189a3.1,3.1,0,0,0-2,1.172l-2.636.437-2.37-.316-2.631-1.308c-.058-.345-.223-.521-.506-.508l-1.5-1.593-.954-1.476-.979-2.429Q506.184,226.057,505.981,223.616Z" transform="translate(341.872 -1147.772)" fill="#fcc468"/>
      <path id="Tracé_9" data-name="Tracé 9" d="M23.2,265.977a10.132,10.132,0,0,1,3.485,3.795q.254,1.466.507,2.932-.3,1.69-.592,3.38a3.981,3.981,0,0,0-1.062,1.815l-1.917,1.628.015-.012-.727.293a.846.846,0,0,0-1.177.3l-.761.081-2.328-.712c-2.979-1.164-4.137-5.648-2.99-9.707a2.28,2.28,0,0,0,.762-1.374l.741-.955,1.449-1.146,2.3-.639Z" transform="translate(642.843 -1174.316)" fill="#f17e5d"/>
      <path id="Tracé_10" data-name="Tracé 10" d="M315.295,175.808l.259,1.425a18.27,18.27,0,0,1-.731,4.888l-.432.753a8.43,8.43,0,0,1-4.9,2.234c-2.714-.472-3.986-2.821-4.74-5.843q.106-1.452.212-2.9a.2.2,0,0,0,.078-.268q.7-1.317,1.394-2.632l1.166-.978a3.609,3.609,0,0,0,1.908-.708l2.671.454A10.251,10.251,0,0,1,315.295,175.808Z" transform="translate(465.283 -1126.406)" fill="#51bcda"/>
      <path id="Tracé_11" data-name="Tracé 11" d="M194.905,214.285l-.763.11c-1.417-.335-2.873-.511-4.107-1.6l-.024-.026-1.395-3.2-.056-2.455,1.15-2.8a.22.22,0,0,0,.19-.154l2.359-1.707.681-.1,1.993.189,2.292,1.6,0,.019,1.309,2.955q-.113,1.685-.226,3.37l-1.063,1.973-.008.01Z" transform="translate(536.537 -1142.012)" fill="#6bd098"/>
      <path id="Tracé_12" data-name="Tracé 12" d="M437.484,183.849q.252,1.7.5,3.4l-.6,2.366c-1.414,2.128-3.043,3.414-5.391,2.67-2.855-.906-4-3.321-3.472-7.657q.452-.868.908-1.736a5.214,5.214,0,0,1,4.223-2.082l.743.16,1.916,1.2A4.122,4.122,0,0,0,437.484,183.849Z" transform="translate(389.453 -1131.014)" fill="#f17e5d"/>
      <path id="Tracé_13" data-name="Tracé 13" d="M90.729,252.772l.394-.9c2.73-2.82,4.229-2.929,7.281-.527l.707,1.469.305,2.952c-1.142,4.855-5.063,5.976-7.563,3.143a6.627,6.627,0,0,1-1.353-3.148Q90.614,254.267,90.729,252.772Z" transform="translate(596.674 -1166.146)" fill="#51bcda"/>
      <g id="Groupe_8" data-name="Groupe 8" transform="translate(909.015 -966.379)">
        <path id="Tracé_1-2" data-name="Tracé 1" d="M15.966,282.38l-2.192-11.209c-.417-1.911-.366-3.987-1.256-5.732q0-.654,0-1.309l1.548-2.616c.093.036.159,0,.2-.114l3.832-2.129.741-.256a3.543,3.543,0,0,0,2.358-.678l.756-.152a3.409,3.409,0,0,0,1.982-.325,5.067,5.067,0,0,0,2.634-.384,5.069,5.069,0,0,0,2.4-.167l1.863-.092a3.847,3.847,0,0,0,2.75-.367l2.661-.124a24.7,24.7,0,0,0,7.066-.577l.661-.006a9.161,9.161,0,0,0,4.664-.378l4.284-.311,1.158.048a1.39,1.39,0,0,0,1.538-.161A5.113,5.113,0,0,0,58,255.123a3.508,3.508,0,0,0,2.263-.106,34.556,34.556,0,0,0,7.358-.5,5.1,5.1,0,0,0,2.4-1.634l.344-.232a4.758,4.758,0,0,0,2.354-2.273l.689-.8a9.62,9.62,0,0,0,2.219-2.452.274.274,0,0,0,.193-.279,6.835,6.835,0,0,0,2.213-2.644l.468-.352a4.929,4.929,0,0,0,1.855-2.1,2.915,2.915,0,0,0,1.217-1.386,1.4,1.4,0,0,0,.836-.969c4.036-4.487,8.046-9.013,12.122-13.443,1.538-1.672,2.776-3.857,4.8-4.752l2.315-.536,2.281-.149A25.565,25.565,0,0,0,110.98,220l.678,0a17.742,17.742,0,0,0,6.209-.436l.751-.067a3.1,3.1,0,0,0,2.387-.117l1.13-.032c2.136.072,4.284.449,6.383-.412l6.779-.18a4.005,4.005,0,0,0,2.323-.044l2.3-.044,1.184.047a19.75,19.75,0,0,0,6.546-.145l1.941-.057a2.7,2.7,0,0,0,2.7.059l2.335-.006a21.184,21.184,0,0,0,6.966.18l2.709.023.371.025a14.6,14.6,0,0,0,4.055.186c.715.779,1.593.437,2.394.509,2.548.231,5.114.286,7.5,1.658,4.516,3.722,7.956,8.958,11.842,13.561,4.411,5.225,8.7,10.61,13.051,15.92a4.6,4.6,0,0,0,2.119,1.625,2.142,2.142,0,0,0,1.866,1.052,32.627,32.627,0,0,0,7.49.524l1.521.139a8.627,8.627,0,0,0,3.5.4l2.3.136a4.483,4.483,0,0,0,2.349.3l2.282.272a2.972,2.972,0,0,0,2.341.341c3.355.7,6.749,1.155,9.977,2.626l-.024-.033c.326,1.128-.2,2.2-.137,3.31a2.881,2.881,0,0,0-.395,2.038l-.072.955a5.726,5.726,0,0,0-.441,2.928,7.945,7.945,0,0,0-.488,2.917,5.367,5.367,0,0,0-.481,3.015,9.837,9.837,0,0,0-.528,3.366,1.072,1.072,0,0,0-.289.99,23.558,23.558,0,0,0-.614,4.861.21.21,0,0,0-.083.266,1.871,1.871,0,0,0-.343,1.776l-.158,1.411a11.557,11.557,0,0,0-.77,4.444,11.074,11.074,0,0,1-.987,3.2,7.032,7.032,0,0,0-1.562,2.265,11.172,11.172,0,0,1-3.355,2.025,16.261,16.261,0,0,0-4.662,1.366l-1.55.448-2.415.261a5.978,5.978,0,0,0-.526-2.358,5.646,5.646,0,0,0-.544-2.841c-1.056-2.534-1.281-5.554-2.839-7.794a1.428,1.428,0,0,0-.522-1.26l-.272-.412a9.183,9.183,0,0,0-2.156-3.334l-.291-.348a6.3,6.3,0,0,0-2.42-2.552,14.146,14.146,0,0,0-6.988-3.809.948.948,0,0,0-1.16-.138l-1.54-.279c-1.56-.7-3.1-.313-4.647.114a5.618,5.618,0,0,0-2.664.377,9.349,9.349,0,0,0-5.083,2.04c-4.151,2.267-7.146,5.954-8.723,11.384-1.205,2.712-1.367,5.71-1.485,8.719l-.049.112a9.618,9.618,0,0,1-1.773,2.5.365.365,0,0,0-.308.115c-2.51,1.143-5.171.458-7.73,1.024h-.8a6.089,6.089,0,0,0-3.108.037l-2.651,0a3.739,3.739,0,0,0-2.382.031l-2.251.017a4.231,4.231,0,0,0-2.393.005l-2.628.035a3.731,3.731,0,0,0-2.41.029l-1.841.015c-5.078-.332-10.156-.092-15.234,0-3.972.072-7.955-.251-11.916.406a4.05,4.05,0,0,0-2.246.022,3.42,3.42,0,0,0-2.409.037,4.693,4.693,0,0,0-2.627.063,3.494,3.494,0,0,0-2.385-.014,3.149,3.149,0,0,0-2.238.025,3.171,3.171,0,0,0-2.429.015,4.971,4.971,0,0,0-2.642.062,2.044,2.044,0,0,0-1.968-.007.216.216,0,0,0-.349.038,1.553,1.553,0,0,0-1.557.06c-.371-.638-.78-.3-1.183-.072a2.815,2.815,0,0,0-1.9.053,5.844,5.844,0,0,0-2.713.015A2.517,2.517,0,0,0,91.6,302a4.555,4.555,0,0,0-2.323.037,38.571,38.571,0,0,0-9.647.052l-2.356.03c-.254-.3-.5-.39-.724.048l-1.921.091a2.9,2.9,0,0,0-2.381,0l-2.345.094a3.225,3.225,0,0,0-2.235-.011l-2.728-1.494c-.175-.434-.489-.344-.782-.333a2.1,2.1,0,0,0-1.186-1.426,3.877,3.877,0,0,0-1.046-1.7l-.281-1.226a4.393,4.393,0,0,0-.775-2.82c.074-.7-.348-1.118-.6-1.632-.614-2.237-1.05-4.574-2.263-6.477-1.741-3.9-3.87-7.271-7.388-8.771-.075-.683-.443-.509-.779-.426-.3-.488-.5-1.184-1.17-.967l-.925-.155a1.661,1.661,0,0,0-1.831-.525l-1.14-.136c-.232-.372-.471-.363-.714-.017l-.786.171a4.3,4.3,0,0,0-2.69.089,1.119,1.119,0,0,0-1.462.306,13.219,13.219,0,0,0-4.362,1.354,3.386,3.386,0,0,0-1.871,1.052,13.179,13.179,0,0,0-5.406,5.225,11.687,11.687,0,0,0-2.515,5.129c-.992,1.666-.974,3.729-1.382,5.625q-.008,2.2-.015,4.395c-.228,1.458-1.394,1.861-2.017,2.875l.013.009a1.675,1.675,0,0,1-1.955-.916c-.383-1.219-.237-2.653-.949-3.738l-.222-1.144a6.947,6.947,0,0,0-.488-2.5l-.314-1.9a9.271,9.271,0,0,0-.759-3.437L16.7,285.9A9.023,9.023,0,0,0,15.966,282.38Zm121.892-31.936a.733.733,0,0,0,.92.233,1.047,1.047,0,0,0,1.2.119l2.625.009a4.358,4.358,0,0,0,2.4-.009l2.624.009a3.2,3.2,0,0,0,2.016-.009l2.624.009a4.358,4.358,0,0,0,2.4-.009l2.624.009a3.2,3.2,0,0,0,2.016-.009l2.624.009a4.358,4.358,0,0,0,2.4-.009l2.624.009a3.2,3.2,0,0,0,2.016-.009l2.624.009a4.358,4.358,0,0,0,2.4-.009l2.624.009,1.966.053c.922.142,1.86.448,2.689-.406l.772-.438c.972-.385,1.265-1.052.552-2.135a3.574,3.574,0,0,0-.955-1.68.546.546,0,0,0-.432-.639,105.725,105.725,0,0,0-5.6-9.254,7.778,7.778,0,0,0-1.693-2.8l-.021-.033a10.7,10.7,0,0,0-1.886-3.244.281.281,0,0,0-.146-.266,8.293,8.293,0,0,0-1.515-2.459,2.741,2.741,0,0,0-1.388-1.743,1.667,1.667,0,0,0-1.607-1.128c-.413-.618-.972-.556-1.524-.526a.8.8,0,0,0-1.182-.055,7.446,7.446,0,0,0-3.059-.023,1.4,1.4,0,0,0-1.581.025,7.735,7.735,0,0,0-3.059-.025,1.4,1.4,0,0,0-1.581.025,9.578,9.578,0,0,0-3.446-.025,1.4,1.4,0,0,0-1.581.025,7.735,7.735,0,0,0-3.059-.025,1.4,1.4,0,0,0-1.581.025,9.578,9.578,0,0,0-3.446-.025,1.4,1.4,0,0,0-1.581.025,17,17,0,0,0-2.277-.113c-1.1.085-2.222.267-2.266,2.175-.346,6.718-.083,13.443-.131,20.165a3.473,3.473,0,0,0,.35,2.308,2.14,2.14,0,0,0,1.474,1.822ZM114.432,224.7l-.8.044a5.651,5.651,0,0,0-2.682.04l-1.965.034a5.584,5.584,0,0,0-2.649.056c-1.182-.118-2.377-.462-3.5.349a2.069,2.069,0,0,0-1.593.818,2.352,2.352,0,0,0-1.606,1.468l-.727.952a3.994,3.994,0,0,0-1.59,1.989l-.731.948a3.827,3.827,0,0,0-1.58,2,2.809,2.809,0,0,0-1.136,1.414,3.04,3.04,0,0,0-1.174,1.53c-2.878,3.59-5.772,7.161-8.619,10.788-.553.7-1.435,1.447-.945,2.679.48,1.208,1.48,1.074,2.387,1.075,5.335.006,10.671.034,16.006.038,8.164.007,16.328.029,24.492-.017,2.554-.015,3.956-1.977,3.934-5.231a5.533,5.533,0,0,0,.01-2.415,10.392,10.392,0,0,0,.038-3.431,5.1,5.1,0,0,0,.007-2.969,10.382,10.382,0,0,0-.051-3.428,5.591,5.591,0,0,0,.007-2.414,7.979,7.979,0,0,0-.059-3.453c-.035-1.385-.49-2.387-1.591-2.8a2.871,2.871,0,0,0-2.648-.434,3.558,3.558,0,0,0-2.4.078l-2.224.1A19.655,19.655,0,0,0,114.432,224.7Z" transform="translate(-12.514 -180.88)" fill="#51bcda" stroke="#51bcda" stroke-width="1"/>
        <path id="Tracé_2-2" data-name="Tracé 2" d="M236.548,385.7l-2.667,0a4.164,4.164,0,0,0-2.361,0l-2.667,0a3.026,3.026,0,0,0-1.974,0l-2.667,0a4.164,4.164,0,0,0-2.361,0l-2.667,0a3.026,3.026,0,0,0-1.974,0l-2.667,0a4.164,4.164,0,0,0-2.361,0l-2.667,0a3.026,3.026,0,0,0-1.974,0l-2.667,0a4.163,4.163,0,0,0-2.36,0l-2.668,0a3.024,3.024,0,0,0-1.973,0l-2.668,0a4.162,4.162,0,0,0-2.36,0l-2.668,0a3.024,3.024,0,0,0-1.973,0l-2.668,0a4.162,4.162,0,0,0-2.36,0l-2.668,0a3.024,3.024,0,0,0-1.973,0l-2.668,0a4.161,4.161,0,0,0-2.36,0l-2.668,0a3.024,3.024,0,0,0-1.973,0l-2.668,0a4.162,4.162,0,0,0-2.36,0l-2.668,0a3.024,3.024,0,0,0-1.973,0l-2.668,0a4.162,4.162,0,0,0-2.36,0l-2.668,0a3.024,3.024,0,0,0-1.973,0l-2.668,0a4.162,4.162,0,0,0-2.36,0l-2.668,0a3.024,3.024,0,0,0-1.973,0l-2.668,0a4.162,4.162,0,0,0-2.36,0l-2.668,0a3.024,3.024,0,0,0-1.973,0l-2.668,0a4.162,4.162,0,0,0-2.36,0l-2.668,0a3.024,3.024,0,0,0-1.973,0l-2.668,0a4.162,4.162,0,0,0-2.36,0l-2.668,0a3.024,3.024,0,0,0-1.973,0l-2.668,0a4.162,4.162,0,0,0-2.36,0l-2.667,0a3.025,3.025,0,0,0-1.973,0l-2.667,0a4.164,4.164,0,0,0-2.361,0l-2.667,0a3.025,3.025,0,0,0-1.973,0l-2.667,0a4.164,4.164,0,0,0-2.361,0l-2.667,0a3.025,3.025,0,0,0-1.973,0l-2.667,0a4.164,4.164,0,0,0-2.361,0l-2.667,0a3.025,3.025,0,0,0-1.973,0l-2.667,0a4.164,4.164,0,0,0-2.361,0l-2.667,0a3.025,3.025,0,0,0-1.973,0l-2.667,0a4.164,4.164,0,0,0-2.361,0l-2.649-.029a2.874,2.874,0,0,0-2.009,0l-2.649.037a4.164,4.164,0,0,0-2.361,0l-2.667,0a3.024,3.024,0,0,0-1.973,0l-2.667,0a4.164,4.164,0,0,0-2.361,0l-2.667,0a3.024,3.024,0,0,0-1.973,0l-2.667,0a4.164,4.164,0,0,0-2.361,0l-2.667,0a3.025,3.025,0,0,0-1.973,0l-2.667,0a4.193,4.193,0,0,0-2.36-.006,3.079,3.079,0,0,1-3.235-2.58l.268-2.907.708-.97.719-.3,1.187-.343,2.679-.009,2.349-.015,2.292.015,2.349-.015a6.794,6.794,0,0,0,2.874-.017l4.362.25c-1.117-1.234-1.716-2.121-2.615-2.547-.5-.675-.756-1.618-1.454-2.063a2.483,2.483,0,0,0-.836-1.47c-.492-1.871-2.01-3.135-1.961-5.325a3.564,3.564,0,0,0-.28-1.913q.017-3.227.033-6.455a.262.262,0,0,0-.005-.367.206.206,0,0,0,.094-.27,2.4,2.4,0,0,0,.393-1.819,18.627,18.627,0,0,1,1.531-4.283,6.256,6.256,0,0,0,1.439-2.375l0-.013,2.482-2.891.558-.54a2.173,2.173,0,0,0,1.243-1.011l4.869-2.316,1.969-.311h2.3l2.363.318,4.9,2.286a1.99,1.99,0,0,0,1.225.965l.6.563,2.1,2.381.324.48,1.654,2.879a5.056,5.056,0,0,0,.963,2.342l.055.066.787,3.055q.121,1.427.243,2.853-.029,1.72-.057,3.441l-.4,2.947a36.191,36.191,0,0,1-2.085,5.657l-.756,1.114-1.449,2.092-2.179,2.052.163.456,3.563-.207a7.065,7.065,0,0,0,3.066-.025,3.114,3.114,0,0,0,1.965.018,5.153,5.153,0,0,0,2.494-.018,3.529,3.529,0,0,0,2.147.018l2.679.015,2.349-.015,2.292.015,2.349-.015,2.679.015,2.349-.015,2.292.015,2.349-.015,2.679.015,2.349-.015,2.292.015,2.349-.015,2.679.015,2.349-.015,2.292.015,2.349-.015,2.679.015,2.349-.015,2.292.015,2.349-.015,2.679.015,2.349-.015,2.292.015,2.349-.015,2.679.015,2.349-.015,2.292.015,2.349-.015,2.679.015,2.349-.015,2.292.015,2.349-.015,2.679.015,2.349-.015,2.292.015,2.349-.015,2.679.015,2.349-.015,2.292.015,2.349-.015,2.679.015,2.349-.015,2.292.015,2.349-.015,2.679.015,2.349-.015,2.292.015,2.349-.015,2.679.015,2.349-.015,2.292.015a1.394,1.394,0,0,0,1.525-.281l-1.484-1.184-.379-.444a5.137,5.137,0,0,0-1.549-2.011l-.828-1.379-1.6-3.928L185.322,368l.029.025-.618-3.483a9.717,9.717,0,0,0,0-3.507q.14-1.476.28-2.951a4.255,4.255,0,0,0,.609-2.366l.3-1.049a6.623,6.623,0,0,0,1.1-2.482,22.377,22.377,0,0,1,5.839-6.887l2.656-1.5.862-.315a.994.994,0,0,0,1.159-.307l2.279-.345,2.349,0,2.021.308a18.285,18.285,0,0,1,10.779,9.551,17.166,17.166,0,0,0,1.341,3.722,5.017,5.017,0,0,0,.541,2.172q.063.728.126,1.456l-.026,4.92q-.06.726-.12,1.45a2.105,2.105,0,0,0-.366,1.477l-.539,1.719-1.492,3.551-.013-.009-2.566,3.573-.395.522a2.29,2.29,0,0,0-1.42,1.355,1.421,1.421,0,0,0,1.424-.036l3.054.023,2.348-.015,2.293.015,2.348-.015,2.679.015,2.348-.015,2.293.015,2.348-.015,2.679.015,2.348-.015,1.915.109,1.865,1.584q.215,1.154.429,2.308a8.813,8.813,0,0,1-1.388,2.651l-.51.336ZM50.232,367.962h-.011a7.683,7.683,0,0,0,1.673-5.02l-.015-1.376a8.544,8.544,0,0,0-3.28-6.82,1.427,1.427,0,0,0-1.133-.639,2.2,2.2,0,0,0-1.961-.845c-1.83-.848-3.464-.141-5.041,1.019l-.372.326a4.947,4.947,0,0,0-2.38,2.88l-.007.015a5.886,5.886,0,0,0-1.024,3.543,8.858,8.858,0,0,0,1.655,7.017,3.546,3.546,0,0,0,2.165,2.249,5.71,5.71,0,0,0,7.341.015A3.6,3.6,0,0,0,50.232,367.962Zm156.617.049q.357-.108.336-.572c3.167-5.716.517-13.177-5.015-14.121a1.676,1.676,0,0,0-1.95-.067c-4.1.208-7.095,4.429-7.01,9.6.072,4.454,3.754,9.579,8.112,8.6a1.767,1.767,0,0,0,2.173-.459c.347,0,.589-.174.665-.63.323.069.64.123.711-.449C205.851,369.815,206.424,369.036,206.849,368.011Z" transform="translate(-14.397 -244.322)" fill="#51bcda"/>
        <path id="Tracé_3-2" data-name="Tracé 3" d="M121.759,202.511l1.079-1,2.385-1.611.721-.316a1.324,1.324,0,0,0,1.322-.472l.095.058.08-.087,2.721-.074,4.677,1.8c3.939,3.285,5.861,7.8,5.279,13.849a3.761,3.761,0,0,0-.693,2.433l-.292,1.023-1.287,2.4a11.57,11.57,0,0,1-8.052,5.006l-2.388-.188-2.272-.753a23.231,23.231,0,0,1-4.333-4.019c-.053-.333-.21-.524-.478-.563l-.556-.719a2.613,2.613,0,0,0-.541-1.683l-.484-1.9q-.23-2.255-.46-4.511.092-.725.184-1.45l1.323-4.313.676-1.124A3.674,3.674,0,0,0,121.759,202.511Z" transform="translate(-77.378 -170.924)" fill="#f17e5d"/>
        <path id="Tracé_4-2" data-name="Tracé 4" d="M346.837,151.638a19.977,19.977,0,0,1,2.5-5.8,3.263,3.263,0,0,0,1.348-1.531l3.923-2.282,2.274-.371,2.656.38,2.224.907,0,.032c.612.983,1.567,1.3,2.354,1.94l.364.406,1.914,3.063a.376.376,0,0,0,.072.328,8.5,8.5,0,0,0,.877,2.938q.116,1.658.231,3.316-.053.539-.105,1.078l-.138.964c-.022.163-.044.326-.066.488a19.554,19.554,0,0,1-2.791,5.724,2.277,2.277,0,0,0-1.057,1.121c-5.279,3.642-9.613,3.262-13.669-1.117a19.228,19.228,0,0,1-1.775-2.828l-1.054-2.918-.27-2.881Z" transform="translate(-217.432 -141.656)" fill="#fcc468"/>
        <path id="Tracé_5-2" data-name="Tracé 5" d="M482.447,179.142a13.156,13.156,0,0,1-2.7,3.5l-2.54,1.62-2.075.518a2.924,2.924,0,0,0-2.022.031l-2.3-.688-2.321-1.549c-1.579-1.391-2.538-3.439-3.574-5.4q-.249-1.434-.5-2.867.029-1.772.057-3.543.343-1.354.685-2.707a2.653,2.653,0,0,0,.681-1.592l1.307-1.938a1.737,1.737,0,0,0,.977-1.013,7.787,7.787,0,0,0,2.388-1.914l-.008.011a4.464,4.464,0,0,0,2.652-.555h1.927l2.7.828c.455.431.963.2,1.455.186.165,1.732,1.483,2.094,2.28,3.075l.853,1.334a.608.608,0,0,0,.108.435l.319.526.025-.05.993,3.361a6.864,6.864,0,0,0,.133,3.016q-.3,1.677-.605,3.354A3.34,3.34,0,0,0,482.447,179.142Z" transform="translate(-289.655 -151.555)" fill="#6bd098"/>
        <path id="Tracé_6-2" data-name="Tracé 6" d="M44.441,234.155l-.376-.12-2.669-5.4q-.2-1.709-.4-3.418l.358-2.954c2.516-7.986,8.061-10.447,14.686-6.52l.772.727,1.934,2.453-.014-.019c.117,1.281.858,2.215,1.176,3.385q.142,1.742.284,3.484-.174,1.425-.348,2.85a5.049,5.049,0,0,0-.968,2.519,16.466,16.466,0,0,1-2.834,3.761,5.094,5.094,0,0,0-2.3,1.418l-.761.138-.376.07-1.1.269a4.3,4.3,0,0,0-2.409-.014l-2.654-1.017Z" transform="translate(-29.979 -178.529)" fill="#6bd098"/>
        <path id="Tracé_7-2" data-name="Tracé 7" d="M505.981,223.616l.276-1.862,1.2-3.068.887-1.366a1.476,1.476,0,0,0,.857-.966l1.067-1.017L512.6,214.1l.692-.139a.86.86,0,0,0,1.183-.209l.757-.114a4.5,4.5,0,0,0,2.407.419l1.856.92a2.117,2.117,0,0,0,1.327.893l1.106,1.324a6.346,6.346,0,0,0,1.365,2.135c2.6,6.4.478,12.226-3.335,15.189a3.1,3.1,0,0,0-2,1.172l-2.636.437-2.37-.316-2.631-1.308c-.058-.345-.223-.521-.506-.508l-1.5-1.593-.954-1.476-.979-2.429Q506.184,226.057,505.981,223.616Z" transform="translate(-315.143 -178.392)" fill="#fcc468"/>
        <path id="Tracé_8" data-name="Tracé 8" d="M575.9,246.223l.748.914.949,2.424.127.914a15.884,15.884,0,0,1-.824,5.269,2.44,2.44,0,0,0-1.024,1.424l-2.31,1.552-.02-.012-2.251.221-1.349-.225-.915-.49a8.577,8.577,0,0,1-3.2-5.226q.017-1.492.034-2.982A8.4,8.4,0,0,1,569,245.136a1.542,1.542,0,0,0,1.374-.775l.412-.079a.628.628,0,0,0,.89.09l2.315.391A5.453,5.453,0,0,0,575.9,246.223Z" transform="translate(-351.851 -194.03)" fill="#51bcda"/>
        <path id="Tracé_9-2" data-name="Tracé 9" d="M23.2,265.977a10.132,10.132,0,0,1,3.485,3.795q.254,1.466.507,2.932-.3,1.69-.592,3.38a3.981,3.981,0,0,0-1.062,1.815l-1.917,1.628.015-.012-.727.293a.846.846,0,0,0-1.177.3l-.761.081-2.328-.712c-2.979-1.164-4.137-5.648-2.99-9.707a2.28,2.28,0,0,0,.762-1.374l.741-.955,1.449-1.146,2.3-.639Z" transform="translate(-14.171 -204.937)" fill="#f17e5d"/>
        <path id="Tracé_10-2" data-name="Tracé 10" d="M315.295,175.808l.259,1.425a18.27,18.27,0,0,1-.731,4.888l-.432.753a8.43,8.43,0,0,1-4.9,2.234c-2.714-.472-3.986-2.821-4.74-5.843q.106-1.452.212-2.9a.2.2,0,0,0,.078-.268q.7-1.317,1.394-2.632l1.166-.978a3.609,3.609,0,0,0,1.908-.708l2.671.454A10.251,10.251,0,0,1,315.295,175.808Z" transform="translate(-191.732 -157.027)" fill="#51bcda"/>
        <path id="Tracé_11-2" data-name="Tracé 11" d="M194.905,214.285l-.763.11c-1.417-.335-2.873-.511-4.107-1.6l-.024-.026-1.395-3.2-.056-2.455,1.15-2.8a.22.22,0,0,0,.19-.154l2.359-1.707.681-.1,1.993.189,2.292,1.6,0,.019,1.309,2.955q-.113,1.685-.226,3.37l-1.063,1.973-.008.01Z" transform="translate(-120.478 -172.633)" fill="#6bd098"/>
        <path id="Tracé_12-2" data-name="Tracé 12" d="M437.484,183.849q.252,1.7.5,3.4l-.6,2.366c-1.414,2.128-3.043,3.414-5.391,2.67-2.855-.906-4-3.321-3.472-7.657q.452-.868.908-1.736a5.214,5.214,0,0,1,4.223-2.082l.743.16,1.916,1.2A4.122,4.122,0,0,0,437.484,183.849Z" transform="translate(-267.561 -161.635)" fill="#f17e5d"/>
        <path id="Tracé_13-2" data-name="Tracé 13" d="M90.729,252.772l.394-.9c2.73-2.82,4.229-2.929,7.281-.527l.707,1.469.305,2.952c-1.142,4.855-5.063,5.976-7.563,3.143a6.627,6.627,0,0,1-1.353-3.148Q90.614,254.267,90.729,252.772Z" transform="translate(-60.341 -196.766)" fill="#51bcda"/>
      </g>
      <path id="Tracé_1-3" data-name="Tracé 1" d="M15.966,282.38l-2.192-11.209c-.417-1.911-.366-3.987-1.256-5.732q0-.654,0-1.309l1.548-2.616c.093.036.159,0,.2-.114l3.832-2.129.741-.256a3.543,3.543,0,0,0,2.358-.678l.756-.152a3.409,3.409,0,0,0,1.982-.325,5.067,5.067,0,0,0,2.634-.384,5.069,5.069,0,0,0,2.4-.167l1.863-.092a3.847,3.847,0,0,0,2.75-.367l2.661-.124a24.7,24.7,0,0,0,7.066-.577l.661-.006a9.161,9.161,0,0,0,4.664-.378l4.284-.311,1.158.048a1.39,1.39,0,0,0,1.538-.161A5.113,5.113,0,0,0,58,255.123a3.508,3.508,0,0,0,2.263-.106,34.556,34.556,0,0,0,7.358-.5,5.1,5.1,0,0,0,2.4-1.634l.344-.232a4.758,4.758,0,0,0,2.354-2.273l.689-.8a9.62,9.62,0,0,0,2.219-2.452.274.274,0,0,0,.193-.279,6.835,6.835,0,0,0,2.213-2.644l.468-.352a4.929,4.929,0,0,0,1.855-2.1,2.915,2.915,0,0,0,1.217-1.386,1.4,1.4,0,0,0,.836-.969c4.036-4.487,8.046-9.013,12.122-13.443,1.538-1.672,2.776-3.857,4.8-4.752l2.315-.536,2.281-.149A25.565,25.565,0,0,0,110.98,220l.678,0a17.742,17.742,0,0,0,6.209-.436l.751-.067a3.1,3.1,0,0,0,2.387-.117l1.13-.032c2.136.072,4.284.449,6.383-.412l6.779-.18a4.005,4.005,0,0,0,2.323-.044l2.3-.044,1.184.047a19.75,19.75,0,0,0,6.546-.145l1.941-.057a2.7,2.7,0,0,0,2.7.059l2.335-.006a21.184,21.184,0,0,0,6.966.18l2.709.023.371.025a14.6,14.6,0,0,0,4.055.186c.715.779,1.593.437,2.394.509,2.548.231,5.114.286,7.5,1.658,4.516,3.722,7.956,8.958,11.842,13.561,4.411,5.225,8.7,10.61,13.051,15.92a4.6,4.6,0,0,0,2.119,1.625,2.142,2.142,0,0,0,1.866,1.052,32.627,32.627,0,0,0,7.49.524l1.521.139a8.627,8.627,0,0,0,3.5.4l2.3.136a4.483,4.483,0,0,0,2.349.3l2.282.272a2.972,2.972,0,0,0,2.341.341c3.355.7,6.749,1.155,9.977,2.626l-.024-.033c.326,1.128-.2,2.2-.137,3.31a2.881,2.881,0,0,0-.395,2.038l-.072.955a5.726,5.726,0,0,0-.441,2.928,7.945,7.945,0,0,0-.488,2.917,5.367,5.367,0,0,0-.481,3.015,9.837,9.837,0,0,0-.528,3.366,1.072,1.072,0,0,0-.289.99,23.558,23.558,0,0,0-.614,4.861.21.21,0,0,0-.083.266,1.871,1.871,0,0,0-.343,1.776l-.158,1.411a11.557,11.557,0,0,0-.77,4.444,11.074,11.074,0,0,1-.987,3.2,7.032,7.032,0,0,0-1.562,2.265,11.172,11.172,0,0,1-3.355,2.025,16.261,16.261,0,0,0-4.662,1.366l-1.55.448-2.415.261a5.978,5.978,0,0,0-.526-2.358,5.646,5.646,0,0,0-.544-2.841c-1.056-2.534-1.281-5.554-2.839-7.794a1.428,1.428,0,0,0-.522-1.26l-.272-.412a9.183,9.183,0,0,0-2.156-3.334l-.291-.348a6.3,6.3,0,0,0-2.42-2.552,14.146,14.146,0,0,0-6.988-3.809.948.948,0,0,0-1.16-.138l-1.54-.279c-1.56-.7-3.1-.313-4.647.114a5.618,5.618,0,0,0-2.664.377,9.349,9.349,0,0,0-5.083,2.04c-4.151,2.267-7.146,5.954-8.723,11.384-1.205,2.712-1.367,5.71-1.485,8.719l-.049.112a9.618,9.618,0,0,1-1.773,2.5.365.365,0,0,0-.308.115c-2.51,1.143-5.171.458-7.73,1.024h-.8a6.089,6.089,0,0,0-3.108.037l-2.651,0a3.739,3.739,0,0,0-2.382.031l-2.251.017a4.231,4.231,0,0,0-2.393.005l-2.628.035a3.731,3.731,0,0,0-2.41.029l-1.841.015c-5.078-.332-10.156-.092-15.234,0-3.972.072-7.955-.251-11.916.406a4.05,4.05,0,0,0-2.246.022,3.42,3.42,0,0,0-2.409.037,4.693,4.693,0,0,0-2.627.063,3.494,3.494,0,0,0-2.385-.014,3.149,3.149,0,0,0-2.238.025,3.171,3.171,0,0,0-2.429.015,4.971,4.971,0,0,0-2.642.062,2.044,2.044,0,0,0-1.968-.007.216.216,0,0,0-.349.038,1.553,1.553,0,0,0-1.557.06c-.371-.638-.78-.3-1.183-.072a2.815,2.815,0,0,0-1.9.053,5.844,5.844,0,0,0-2.713.015A2.517,2.517,0,0,0,91.6,302a4.555,4.555,0,0,0-2.323.037,38.571,38.571,0,0,0-9.647.052l-2.356.03c-.254-.3-.5-.39-.724.048l-1.921.091a2.9,2.9,0,0,0-2.381,0l-2.345.094a3.225,3.225,0,0,0-2.235-.011l-2.728-1.494c-.175-.434-.489-.344-.782-.333a2.1,2.1,0,0,0-1.186-1.426,3.877,3.877,0,0,0-1.046-1.7l-.281-1.226a4.393,4.393,0,0,0-.775-2.82c.074-.7-.348-1.118-.6-1.632-.614-2.237-1.05-4.574-2.263-6.477-1.741-3.9-3.87-7.271-7.388-8.771-.075-.683-.443-.509-.779-.426-.3-.488-.5-1.184-1.17-.967l-.925-.155a1.661,1.661,0,0,0-1.831-.525l-1.14-.136c-.232-.372-.471-.363-.714-.017l-.786.171a4.3,4.3,0,0,0-2.69.089,1.119,1.119,0,0,0-1.462.306,13.219,13.219,0,0,0-4.362,1.354,3.386,3.386,0,0,0-1.871,1.052,13.179,13.179,0,0,0-5.406,5.225,11.687,11.687,0,0,0-2.515,5.129c-.992,1.666-.974,3.729-1.382,5.625q-.008,2.2-.015,4.395c-.228,1.458-1.394,1.861-2.017,2.875l.013.009a1.675,1.675,0,0,1-1.955-.916c-.383-1.219-.237-2.653-.949-3.738l-.222-1.144a6.947,6.947,0,0,0-.488-2.5l-.314-1.9a9.271,9.271,0,0,0-.759-3.437L16.7,285.9A9.023,9.023,0,0,0,15.966,282.38Zm121.892-31.936a.733.733,0,0,0,.92.233,1.047,1.047,0,0,0,1.2.119l2.625.009a4.358,4.358,0,0,0,2.4-.009l2.624.009a3.2,3.2,0,0,0,2.016-.009l2.624.009a4.358,4.358,0,0,0,2.4-.009l2.624.009a3.2,3.2,0,0,0,2.016-.009l2.624.009a4.358,4.358,0,0,0,2.4-.009l2.624.009a3.2,3.2,0,0,0,2.016-.009l2.624.009a4.358,4.358,0,0,0,2.4-.009l2.624.009,1.966.053c.922.142,1.86.448,2.689-.406l.772-.438c.972-.385,1.265-1.052.552-2.135a3.574,3.574,0,0,0-.955-1.68.546.546,0,0,0-.432-.639,105.725,105.725,0,0,0-5.6-9.254,7.778,7.778,0,0,0-1.693-2.8l-.021-.033a10.7,10.7,0,0,0-1.886-3.244.281.281,0,0,0-.146-.266,8.293,8.293,0,0,0-1.515-2.459,2.741,2.741,0,0,0-1.388-1.743,1.667,1.667,0,0,0-1.607-1.128c-.413-.618-.972-.556-1.524-.526a.8.8,0,0,0-1.182-.055,7.446,7.446,0,0,0-3.059-.023,1.4,1.4,0,0,0-1.581.025,7.735,7.735,0,0,0-3.059-.025,1.4,1.4,0,0,0-1.581.025,9.578,9.578,0,0,0-3.446-.025,1.4,1.4,0,0,0-1.581.025,7.735,7.735,0,0,0-3.059-.025,1.4,1.4,0,0,0-1.581.025,9.578,9.578,0,0,0-3.446-.025,1.4,1.4,0,0,0-1.581.025,17,17,0,0,0-2.277-.113c-1.1.085-2.222.267-2.266,2.175-.346,6.718-.083,13.443-.131,20.165a3.473,3.473,0,0,0,.35,2.308,2.14,2.14,0,0,0,1.474,1.822ZM114.432,224.7l-.8.044a5.651,5.651,0,0,0-2.682.04l-1.965.034a5.584,5.584,0,0,0-2.649.056c-1.182-.118-2.377-.462-3.5.349a2.069,2.069,0,0,0-1.593.818,2.352,2.352,0,0,0-1.606,1.468l-.727.952a3.994,3.994,0,0,0-1.59,1.989l-.731.948a3.827,3.827,0,0,0-1.58,2,2.809,2.809,0,0,0-1.136,1.414,3.04,3.04,0,0,0-1.174,1.53c-2.878,3.59-5.772,7.161-8.619,10.788-.553.7-1.435,1.447-.945,2.679.48,1.208,1.48,1.074,2.387,1.075,5.335.006,10.671.034,16.006.038,8.164.007,16.328.029,24.492-.017,2.554-.015,3.956-1.977,3.934-5.231a5.533,5.533,0,0,0,.01-2.415,10.392,10.392,0,0,0,.038-3.431,5.1,5.1,0,0,0,.007-2.969,10.382,10.382,0,0,0-.051-3.428,5.591,5.591,0,0,0,.007-2.414,7.979,7.979,0,0,0-.059-3.453c-.035-1.385-.49-2.387-1.591-2.8a2.871,2.871,0,0,0-2.648-.434,3.558,3.558,0,0,0-2.4.078l-2.224.1A19.655,19.655,0,0,0,114.432,224.7Z" transform="translate(896.501 -1147.259)" fill="#fcc468" stroke="#fcc468" stroke-width="1"/>
      <path id="Tracé_2-3" data-name="Tracé 2" d="M236.548,385.7l-2.667,0a4.164,4.164,0,0,0-2.361,0l-2.667,0a3.026,3.026,0,0,0-1.974,0l-2.667,0a4.164,4.164,0,0,0-2.361,0l-2.667,0a3.026,3.026,0,0,0-1.974,0l-2.667,0a4.164,4.164,0,0,0-2.361,0l-2.667,0a3.026,3.026,0,0,0-1.974,0l-2.667,0a4.163,4.163,0,0,0-2.36,0l-2.668,0a3.024,3.024,0,0,0-1.973,0l-2.668,0a4.162,4.162,0,0,0-2.36,0l-2.668,0a3.024,3.024,0,0,0-1.973,0l-2.668,0a4.162,4.162,0,0,0-2.36,0l-2.668,0a3.024,3.024,0,0,0-1.973,0l-2.668,0a4.161,4.161,0,0,0-2.36,0l-2.668,0a3.024,3.024,0,0,0-1.973,0l-2.668,0a4.162,4.162,0,0,0-2.36,0l-2.668,0a3.024,3.024,0,0,0-1.973,0l-2.668,0a4.162,4.162,0,0,0-2.36,0l-2.668,0a3.024,3.024,0,0,0-1.973,0l-2.668,0a4.162,4.162,0,0,0-2.36,0l-2.668,0a3.024,3.024,0,0,0-1.973,0l-2.668,0a4.162,4.162,0,0,0-2.36,0l-2.668,0a3.024,3.024,0,0,0-1.973,0l-2.668,0a4.162,4.162,0,0,0-2.36,0l-2.668,0a3.024,3.024,0,0,0-1.973,0l-2.668,0a4.162,4.162,0,0,0-2.36,0l-2.668,0a3.024,3.024,0,0,0-1.973,0l-2.668,0a4.162,4.162,0,0,0-2.36,0l-2.667,0a3.025,3.025,0,0,0-1.973,0l-2.667,0a4.164,4.164,0,0,0-2.361,0l-2.667,0a3.025,3.025,0,0,0-1.973,0l-2.667,0a4.164,4.164,0,0,0-2.361,0l-2.667,0a3.025,3.025,0,0,0-1.973,0l-2.667,0a4.164,4.164,0,0,0-2.361,0l-2.667,0a3.025,3.025,0,0,0-1.973,0l-2.667,0a4.164,4.164,0,0,0-2.361,0l-2.667,0a3.025,3.025,0,0,0-1.973,0l-2.667,0a4.164,4.164,0,0,0-2.361,0l-2.649-.029a2.874,2.874,0,0,0-2.009,0l-2.649.037a4.164,4.164,0,0,0-2.361,0l-2.667,0a3.024,3.024,0,0,0-1.973,0l-2.667,0a4.164,4.164,0,0,0-2.361,0l-2.667,0a3.024,3.024,0,0,0-1.973,0l-2.667,0a4.164,4.164,0,0,0-2.361,0l-2.667,0a3.025,3.025,0,0,0-1.973,0l-2.667,0a4.193,4.193,0,0,0-2.36-.006,3.079,3.079,0,0,1-3.235-2.58l.268-2.907.708-.97.719-.3,1.187-.343,2.679-.009,2.349-.015,2.292.015,2.349-.015a6.794,6.794,0,0,0,2.874-.017l4.362.25c-1.117-1.234-1.716-2.121-2.615-2.547-.5-.675-.756-1.618-1.454-2.063a2.483,2.483,0,0,0-.836-1.47c-.492-1.871-2.01-3.135-1.961-5.325a3.564,3.564,0,0,0-.28-1.913q.017-3.227.033-6.455a.262.262,0,0,0-.005-.367.206.206,0,0,0,.094-.27,2.4,2.4,0,0,0,.393-1.819,18.627,18.627,0,0,1,1.531-4.283,6.256,6.256,0,0,0,1.439-2.375l0-.013,2.482-2.891.558-.54a2.173,2.173,0,0,0,1.243-1.011l4.869-2.316,1.969-.311h2.3l2.363.318,4.9,2.286a1.99,1.99,0,0,0,1.225.965l.6.563,2.1,2.381.324.48,1.654,2.879a5.056,5.056,0,0,0,.963,2.342l.055.066.787,3.055q.121,1.427.243,2.853-.029,1.72-.057,3.441l-.4,2.947a36.191,36.191,0,0,1-2.085,5.657l-.756,1.114-1.449,2.092-2.179,2.052.163.456,3.563-.207a7.065,7.065,0,0,0,3.066-.025,3.114,3.114,0,0,0,1.965.018,5.153,5.153,0,0,0,2.494-.018,3.529,3.529,0,0,0,2.147.018l2.679.015,2.349-.015,2.292.015,2.349-.015,2.679.015,2.349-.015,2.292.015,2.349-.015,2.679.015,2.349-.015,2.292.015,2.349-.015,2.679.015,2.349-.015,2.292.015,2.349-.015,2.679.015,2.349-.015,2.292.015,2.349-.015,2.679.015,2.349-.015,2.292.015,2.349-.015,2.679.015,2.349-.015,2.292.015,2.349-.015,2.679.015,2.349-.015,2.292.015,2.349-.015,2.679.015,2.349-.015,2.292.015,2.349-.015,2.679.015,2.349-.015,2.292.015,2.349-.015,2.679.015,2.349-.015,2.292.015,2.349-.015,2.679.015,2.349-.015,2.292.015,2.349-.015,2.679.015,2.349-.015,2.292.015a1.394,1.394,0,0,0,1.525-.281l-1.484-1.184-.379-.444a5.137,5.137,0,0,0-1.549-2.011l-.828-1.379-1.6-3.928L185.322,368l.029.025-.618-3.483a9.717,9.717,0,0,0,0-3.507q.14-1.476.28-2.951a4.255,4.255,0,0,0,.609-2.366l.3-1.049a6.623,6.623,0,0,0,1.1-2.482,22.377,22.377,0,0,1,5.839-6.887l2.656-1.5.862-.315a.994.994,0,0,0,1.159-.307l2.279-.345,2.349,0,2.021.308a18.285,18.285,0,0,1,10.779,9.551,17.166,17.166,0,0,0,1.341,3.722,5.017,5.017,0,0,0,.541,2.172q.063.728.126,1.456l-.026,4.92q-.06.726-.12,1.45a2.105,2.105,0,0,0-.366,1.477l-.539,1.719-1.492,3.551-.013-.009-2.566,3.573-.395.522a2.29,2.29,0,0,0-1.42,1.355,1.421,1.421,0,0,0,1.424-.036l3.054.023,2.348-.015,2.293.015,2.348-.015,2.679.015,2.348-.015,2.293.015,2.348-.015,2.679.015,2.348-.015,1.915.109,1.865,1.584q.215,1.154.429,2.308a8.813,8.813,0,0,1-1.388,2.651l-.51.336ZM50.232,367.962h-.011a7.683,7.683,0,0,0,1.673-5.02l-.015-1.376a8.544,8.544,0,0,0-3.28-6.82,1.427,1.427,0,0,0-1.133-.639,2.2,2.2,0,0,0-1.961-.845c-1.83-.848-3.464-.141-5.041,1.019l-.372.326a4.947,4.947,0,0,0-2.38,2.88l-.007.015a5.886,5.886,0,0,0-1.024,3.543,8.858,8.858,0,0,0,1.655,7.017,3.546,3.546,0,0,0,2.165,2.249,5.71,5.71,0,0,0,7.341.015A3.6,3.6,0,0,0,50.232,367.962Zm156.617.049q.357-.108.336-.572c3.167-5.716.517-13.177-5.015-14.121a1.676,1.676,0,0,0-1.95-.067c-4.1.208-7.095,4.429-7.01,9.6.072,4.454,3.754,9.579,8.112,8.6a1.767,1.767,0,0,0,2.173-.459c.347,0,.589-.174.665-.63.323.069.64.123.711-.449C205.851,369.815,206.424,369.036,206.849,368.011Z" transform="translate(894.617 -1210.702)" fill="#fcc468" stroke="rgba(0,0,0,0)" stroke-width="1"/>
      <path id="Tracé_3-3" data-name="Tracé 3" d="M121.759,202.511l1.079-1,2.385-1.611.721-.316a1.324,1.324,0,0,0,1.322-.472l.095.058.08-.087,2.721-.074,4.677,1.8c3.939,3.285,5.861,7.8,5.279,13.849a3.761,3.761,0,0,0-.693,2.433l-.292,1.023-1.287,2.4a11.57,11.57,0,0,1-8.052,5.006l-2.388-.188-2.272-.753a23.231,23.231,0,0,1-4.333-4.019c-.053-.333-.21-.524-.478-.563l-.556-.719a2.613,2.613,0,0,0-.541-1.683l-.484-1.9q-.23-2.255-.46-4.511.092-.725.184-1.45l1.323-4.313.676-1.124A3.674,3.674,0,0,0,121.759,202.511Z" transform="translate(831.637 -1137.303)" fill="#f17e5d" stroke="rgba(0,0,0,0)" stroke-width="1"/>
      <path id="Tracé_4-3" data-name="Tracé 4" d="M346.837,151.638a19.977,19.977,0,0,1,2.5-5.8,3.263,3.263,0,0,0,1.348-1.531l3.923-2.282,2.274-.371,2.656.38,2.224.907,0,.032c.612.983,1.567,1.3,2.354,1.94l.364.406,1.914,3.063a.376.376,0,0,0,.072.328,8.5,8.5,0,0,0,.877,2.938q.116,1.658.231,3.316-.053.539-.105,1.078l-.138.964c-.022.163-.044.326-.066.488a19.554,19.554,0,0,1-2.791,5.724,2.277,2.277,0,0,0-1.057,1.121c-5.279,3.642-9.613,3.262-13.669-1.117a19.228,19.228,0,0,1-1.775-2.828l-1.054-2.918-.27-2.881Z" transform="translate(691.583 -1108.035)" fill="#fcc468" stroke="rgba(0,0,0,0)" stroke-width="1"/>
      <path id="Tracé_5-3" data-name="Tracé 5" d="M482.447,179.142a13.156,13.156,0,0,1-2.7,3.5l-2.54,1.62-2.075.518a2.924,2.924,0,0,0-2.022.031l-2.3-.688-2.321-1.549c-1.579-1.391-2.538-3.439-3.574-5.4q-.249-1.434-.5-2.867.029-1.772.057-3.543.343-1.354.685-2.707a2.653,2.653,0,0,0,.681-1.592l1.307-1.938a1.737,1.737,0,0,0,.977-1.013,7.787,7.787,0,0,0,2.388-1.914l-.008.011a4.464,4.464,0,0,0,2.652-.555h1.927l2.7.828c.455.431.963.2,1.455.186.165,1.732,1.483,2.094,2.28,3.075l.853,1.334a.608.608,0,0,0,.108.435l.319.526.025-.05.993,3.361a6.864,6.864,0,0,0,.133,3.016q-.3,1.677-.605,3.354A3.34,3.34,0,0,0,482.447,179.142Z" transform="translate(619.36 -1117.934)" fill="#6bd098" stroke="rgba(0,0,0,0)" stroke-width="1"/>
      <path id="Tracé_6-3" data-name="Tracé 6" d="M44.441,234.155l-.376-.12-2.669-5.4q-.2-1.709-.4-3.418l.358-2.954c2.516-7.986,8.061-10.447,14.686-6.52l.772.727,1.934,2.453-.014-.019c.117,1.281.858,2.215,1.176,3.385q.142,1.742.284,3.484-.174,1.425-.348,2.85a5.049,5.049,0,0,0-.968,2.519,16.466,16.466,0,0,1-2.834,3.761,5.094,5.094,0,0,0-2.3,1.418l-.761.138-.376.07-1.1.269a4.3,4.3,0,0,0-2.409-.014l-2.654-1.017Z" transform="translate(879.035 -1144.908)" fill="#6bd098" stroke="rgba(0,0,0,0)" stroke-width="1"/>
      <path id="Tracé_7-3" data-name="Tracé 7" d="M505.981,223.616l.276-1.862,1.2-3.068.887-1.366a1.476,1.476,0,0,0,.857-.966l1.067-1.017L512.6,214.1l.692-.139a.86.86,0,0,0,1.183-.209l.757-.114a4.5,4.5,0,0,0,2.407.419l1.856.92a2.117,2.117,0,0,0,1.327.893l1.106,1.324a6.346,6.346,0,0,0,1.365,2.135c2.6,6.4.478,12.226-3.335,15.189a3.1,3.1,0,0,0-2,1.172l-2.636.437-2.37-.316-2.631-1.308c-.058-.345-.223-.521-.506-.508l-1.5-1.593-.954-1.476-.979-2.429Q506.184,226.057,505.981,223.616Z" transform="translate(593.872 -1144.772)" fill="#fcc468" stroke="rgba(0,0,0,0)" stroke-width="1"/>
      <path id="Tracé_8-2" data-name="Tracé 8" d="M575.9,246.223l.748.914.949,2.424.127.914a15.884,15.884,0,0,1-.824,5.269,2.44,2.44,0,0,0-1.024,1.424l-2.31,1.552-.02-.012-2.251.221-1.349-.225-.915-.49a8.577,8.577,0,0,1-3.2-5.226q.017-1.492.034-2.982A8.4,8.4,0,0,1,569,245.136a1.542,1.542,0,0,0,1.374-.775l.412-.079a.628.628,0,0,0,.89.09l2.315.391A5.453,5.453,0,0,0,575.9,246.223Z" transform="translate(557.164 -1160.409)" fill="#51bcda" stroke="rgba(0,0,0,0)" stroke-width="1"/>
      <path id="Tracé_9-3" data-name="Tracé 9" d="M23.2,265.977a10.132,10.132,0,0,1,3.485,3.795q.254,1.466.507,2.932-.3,1.69-.592,3.38a3.981,3.981,0,0,0-1.062,1.815l-1.917,1.628.015-.012-.727.293a.846.846,0,0,0-1.177.3l-.761.081-2.328-.712c-2.979-1.164-4.137-5.648-2.99-9.707a2.28,2.28,0,0,0,.762-1.374l.741-.955,1.449-1.146,2.3-.639Z" transform="translate(894.843 -1171.316)" fill="#f17e5d" stroke="rgba(0,0,0,0)" stroke-width="1"/>
      <path id="Tracé_10-3" data-name="Tracé 10" d="M315.295,175.808l.259,1.425a18.27,18.27,0,0,1-.731,4.888l-.432.753a8.43,8.43,0,0,1-4.9,2.234c-2.714-.472-3.986-2.821-4.74-5.843q.106-1.452.212-2.9a.2.2,0,0,0,.078-.268q.7-1.317,1.394-2.632l1.166-.978a3.609,3.609,0,0,0,1.908-.708l2.671.454A10.251,10.251,0,0,1,315.295,175.808Z" transform="translate(717.283 -1123.406)" fill="#51bcda" stroke="rgba(0,0,0,0)" stroke-width="1"/>
      <path id="Tracé_11-3" data-name="Tracé 11" d="M194.905,214.285l-.763.11c-1.417-.335-2.873-.511-4.107-1.6l-.024-.026-1.395-3.2-.056-2.455,1.15-2.8a.22.22,0,0,0,.19-.154l2.359-1.707.681-.1,1.993.189,2.292,1.6,0,.019,1.309,2.955q-.113,1.685-.226,3.37l-1.063,1.973-.008.01Z" transform="translate(788.537 -1139.012)" fill="#6bd098" stroke="rgba(0,0,0,0)" stroke-width="1"/>
      <path id="Tracé_12-3" data-name="Tracé 12" d="M437.484,183.849q.252,1.7.5,3.4l-.6,2.366c-1.414,2.128-3.043,3.414-5.391,2.67-2.855-.906-4-3.321-3.472-7.657q.452-.868.908-1.736a5.214,5.214,0,0,1,4.223-2.082l.743.16,1.916,1.2A4.122,4.122,0,0,0,437.484,183.849Z" transform="translate(641.453 -1128.014)" fill="#f17e5d" stroke="rgba(0,0,0,0)" stroke-width="1"/>
      <path id="Tracé_13-3" data-name="Tracé 13" d="M90.729,252.772l.394-.9c2.73-2.82,4.229-2.929,7.281-.527l.707,1.469.305,2.952c-1.142,4.855-5.063,5.976-7.563,3.143a6.627,6.627,0,0,1-1.353-3.148Q90.614,254.267,90.729,252.772Z" transform="translate(848.674 -1163.146)" fill="#51bcda" stroke="rgba(0,0,0,0)" stroke-width="1"/>
      <path id="Tracé_1-4" data-name="Tracé 1" d="M15.966,282.38l-2.192-11.209c-.417-1.911-.366-3.987-1.256-5.732q0-.654,0-1.309l1.548-2.616c.093.036.159,0,.2-.114l3.832-2.129.741-.256a3.543,3.543,0,0,0,2.358-.678l.756-.152a3.409,3.409,0,0,0,1.982-.325,5.067,5.067,0,0,0,2.634-.384,5.069,5.069,0,0,0,2.4-.167l1.863-.092a3.847,3.847,0,0,0,2.75-.367l2.661-.124a24.7,24.7,0,0,0,7.066-.577l.661-.006a9.161,9.161,0,0,0,4.664-.378l4.284-.311,1.158.048a1.39,1.39,0,0,0,1.538-.161A5.113,5.113,0,0,0,58,255.123a3.508,3.508,0,0,0,2.263-.106,34.556,34.556,0,0,0,7.358-.5,5.1,5.1,0,0,0,2.4-1.634l.344-.232a4.758,4.758,0,0,0,2.354-2.273l.689-.8a9.62,9.62,0,0,0,2.219-2.452.274.274,0,0,0,.193-.279,6.835,6.835,0,0,0,2.213-2.644l.468-.352a4.929,4.929,0,0,0,1.855-2.1,2.915,2.915,0,0,0,1.217-1.386,1.4,1.4,0,0,0,.836-.969c4.036-4.487,8.046-9.013,12.122-13.443,1.538-1.672,2.776-3.857,4.8-4.752l2.315-.536,2.281-.149A25.565,25.565,0,0,0,110.98,220l.678,0a17.742,17.742,0,0,0,6.209-.436l.751-.067a3.1,3.1,0,0,0,2.387-.117l1.13-.032c2.136.072,4.284.449,6.383-.412l6.779-.18a4.005,4.005,0,0,0,2.323-.044l2.3-.044,1.184.047a19.75,19.75,0,0,0,6.546-.145l1.941-.057a2.7,2.7,0,0,0,2.7.059l2.335-.006a21.184,21.184,0,0,0,6.966.18l2.709.023.371.025a14.6,14.6,0,0,0,4.055.186c.715.779,1.593.437,2.394.509,2.548.231,5.114.286,7.5,1.658,4.516,3.722,7.956,8.958,11.842,13.561,4.411,5.225,8.7,10.61,13.051,15.92a4.6,4.6,0,0,0,2.119,1.625,2.142,2.142,0,0,0,1.866,1.052,32.627,32.627,0,0,0,7.49.524l1.521.139a8.627,8.627,0,0,0,3.5.4l2.3.136a4.483,4.483,0,0,0,2.349.3l2.282.272a2.972,2.972,0,0,0,2.341.341c3.355.7,6.749,1.155,9.977,2.626l-.024-.033c.326,1.128-.2,2.2-.137,3.31a2.881,2.881,0,0,0-.395,2.038l-.072.955a5.726,5.726,0,0,0-.441,2.928,7.945,7.945,0,0,0-.488,2.917,5.367,5.367,0,0,0-.481,3.015,9.837,9.837,0,0,0-.528,3.366,1.072,1.072,0,0,0-.289.99,23.558,23.558,0,0,0-.614,4.861.21.21,0,0,0-.083.266,1.871,1.871,0,0,0-.343,1.776l-.158,1.411a11.557,11.557,0,0,0-.77,4.444,11.074,11.074,0,0,1-.987,3.2,7.032,7.032,0,0,0-1.562,2.265,11.172,11.172,0,0,1-3.355,2.025,16.261,16.261,0,0,0-4.662,1.366l-1.55.448-2.415.261a5.978,5.978,0,0,0-.526-2.358,5.646,5.646,0,0,0-.544-2.841c-1.056-2.534-1.281-5.554-2.839-7.794a1.428,1.428,0,0,0-.522-1.26l-.272-.412a9.183,9.183,0,0,0-2.156-3.334l-.291-.348a6.3,6.3,0,0,0-2.42-2.552,14.146,14.146,0,0,0-6.988-3.809.948.948,0,0,0-1.16-.138l-1.54-.279c-1.56-.7-3.1-.313-4.647.114a5.618,5.618,0,0,0-2.664.377,9.349,9.349,0,0,0-5.083,2.04c-4.151,2.267-7.146,5.954-8.723,11.384-1.205,2.712-1.367,5.71-1.485,8.719l-.049.112a9.618,9.618,0,0,1-1.773,2.5.365.365,0,0,0-.308.115c-2.51,1.143-5.171.458-7.73,1.024h-.8a6.089,6.089,0,0,0-3.108.037l-2.651,0a3.739,3.739,0,0,0-2.382.031l-2.251.017a4.231,4.231,0,0,0-2.393.005l-2.628.035a3.731,3.731,0,0,0-2.41.029l-1.841.015c-5.078-.332-10.156-.092-15.234,0-3.972.072-7.955-.251-11.916.406a4.05,4.05,0,0,0-2.246.022,3.42,3.42,0,0,0-2.409.037,4.693,4.693,0,0,0-2.627.063,3.494,3.494,0,0,0-2.385-.014,3.149,3.149,0,0,0-2.238.025,3.171,3.171,0,0,0-2.429.015,4.971,4.971,0,0,0-2.642.062,2.044,2.044,0,0,0-1.968-.007.216.216,0,0,0-.349.038,1.553,1.553,0,0,0-1.557.06c-.371-.638-.78-.3-1.183-.072a2.815,2.815,0,0,0-1.9.053,5.844,5.844,0,0,0-2.713.015A2.517,2.517,0,0,0,91.6,302a4.555,4.555,0,0,0-2.323.037,38.571,38.571,0,0,0-9.647.052l-2.356.03c-.254-.3-.5-.39-.724.048l-1.921.091a2.9,2.9,0,0,0-2.381,0l-2.345.094a3.225,3.225,0,0,0-2.235-.011l-2.728-1.494c-.175-.434-.489-.344-.782-.333a2.1,2.1,0,0,0-1.186-1.426,3.877,3.877,0,0,0-1.046-1.7l-.281-1.226a4.393,4.393,0,0,0-.775-2.82c.074-.7-.348-1.118-.6-1.632-.614-2.237-1.05-4.574-2.263-6.477-1.741-3.9-3.87-7.271-7.388-8.771-.075-.683-.443-.509-.779-.426-.3-.488-.5-1.184-1.17-.967l-.925-.155a1.661,1.661,0,0,0-1.831-.525l-1.14-.136c-.232-.372-.471-.363-.714-.017l-.786.171a4.3,4.3,0,0,0-2.69.089,1.119,1.119,0,0,0-1.462.306,13.219,13.219,0,0,0-4.362,1.354,3.386,3.386,0,0,0-1.871,1.052,13.179,13.179,0,0,0-5.406,5.225,11.687,11.687,0,0,0-2.515,5.129c-.992,1.666-.974,3.729-1.382,5.625q-.008,2.2-.015,4.395c-.228,1.458-1.394,1.861-2.017,2.875l.013.009a1.675,1.675,0,0,1-1.955-.916c-.383-1.219-.237-2.653-.949-3.738l-.222-1.144a6.947,6.947,0,0,0-.488-2.5l-.314-1.9a9.271,9.271,0,0,0-.759-3.437L16.7,285.9A9.023,9.023,0,0,0,15.966,282.38Zm121.892-31.936a.733.733,0,0,0,.92.233,1.047,1.047,0,0,0,1.2.119l2.625.009a4.358,4.358,0,0,0,2.4-.009l2.624.009a3.2,3.2,0,0,0,2.016-.009l2.624.009a4.358,4.358,0,0,0,2.4-.009l2.624.009a3.2,3.2,0,0,0,2.016-.009l2.624.009a4.358,4.358,0,0,0,2.4-.009l2.624.009a3.2,3.2,0,0,0,2.016-.009l2.624.009a4.358,4.358,0,0,0,2.4-.009l2.624.009,1.966.053c.922.142,1.86.448,2.689-.406l.772-.438c.972-.385,1.265-1.052.552-2.135a3.574,3.574,0,0,0-.955-1.68.546.546,0,0,0-.432-.639,105.725,105.725,0,0,0-5.6-9.254,7.778,7.778,0,0,0-1.693-2.8l-.021-.033a10.7,10.7,0,0,0-1.886-3.244.281.281,0,0,0-.146-.266,8.293,8.293,0,0,0-1.515-2.459,2.741,2.741,0,0,0-1.388-1.743,1.667,1.667,0,0,0-1.607-1.128c-.413-.618-.972-.556-1.524-.526a.8.8,0,0,0-1.182-.055,7.446,7.446,0,0,0-3.059-.023,1.4,1.4,0,0,0-1.581.025,7.735,7.735,0,0,0-3.059-.025,1.4,1.4,0,0,0-1.581.025,9.578,9.578,0,0,0-3.446-.025,1.4,1.4,0,0,0-1.581.025,7.735,7.735,0,0,0-3.059-.025,1.4,1.4,0,0,0-1.581.025,9.578,9.578,0,0,0-3.446-.025,1.4,1.4,0,0,0-1.581.025,17,17,0,0,0-2.277-.113c-1.1.085-2.222.267-2.266,2.175-.346,6.718-.083,13.443-.131,20.165a3.473,3.473,0,0,0,.35,2.308,2.14,2.14,0,0,0,1.474,1.822ZM114.432,224.7l-.8.044a5.651,5.651,0,0,0-2.682.04l-1.965.034a5.584,5.584,0,0,0-2.649.056c-1.182-.118-2.377-.462-3.5.349a2.069,2.069,0,0,0-1.593.818,2.352,2.352,0,0,0-1.606,1.468l-.727.952a3.994,3.994,0,0,0-1.59,1.989l-.731.948a3.827,3.827,0,0,0-1.58,2,2.809,2.809,0,0,0-1.136,1.414,3.04,3.04,0,0,0-1.174,1.53c-2.878,3.59-5.772,7.161-8.619,10.788-.553.7-1.435,1.447-.945,2.679.48,1.208,1.48,1.074,2.387,1.075,5.335.006,10.671.034,16.006.038,8.164.007,16.328.029,24.492-.017,2.554-.015,3.956-1.977,3.934-5.231a5.533,5.533,0,0,0,.01-2.415,10.392,10.392,0,0,0,.038-3.431,5.1,5.1,0,0,0,.007-2.969,10.382,10.382,0,0,0-.051-3.428,5.591,5.591,0,0,0,.007-2.414,7.979,7.979,0,0,0-.059-3.453c-.035-1.385-.49-2.387-1.591-2.8a2.871,2.871,0,0,0-2.648-.434,3.558,3.558,0,0,0-2.4.078l-2.224.1A19.655,19.655,0,0,0,114.432,224.7Z" transform="translate(1147.501 -1147.259)" fill="#f17e5d" stroke="#f17e5d" stroke-width="1"/>
      <path id="Tracé_2-4" data-name="Tracé 2" d="M236.548,385.7l-2.667,0a4.164,4.164,0,0,0-2.361,0l-2.667,0a3.026,3.026,0,0,0-1.974,0l-2.667,0a4.164,4.164,0,0,0-2.361,0l-2.667,0a3.026,3.026,0,0,0-1.974,0l-2.667,0a4.164,4.164,0,0,0-2.361,0l-2.667,0a3.026,3.026,0,0,0-1.974,0l-2.667,0a4.163,4.163,0,0,0-2.36,0l-2.668,0a3.024,3.024,0,0,0-1.973,0l-2.668,0a4.162,4.162,0,0,0-2.36,0l-2.668,0a3.024,3.024,0,0,0-1.973,0l-2.668,0a4.162,4.162,0,0,0-2.36,0l-2.668,0a3.024,3.024,0,0,0-1.973,0l-2.668,0a4.161,4.161,0,0,0-2.36,0l-2.668,0a3.024,3.024,0,0,0-1.973,0l-2.668,0a4.162,4.162,0,0,0-2.36,0l-2.668,0a3.024,3.024,0,0,0-1.973,0l-2.668,0a4.162,4.162,0,0,0-2.36,0l-2.668,0a3.024,3.024,0,0,0-1.973,0l-2.668,0a4.162,4.162,0,0,0-2.36,0l-2.668,0a3.024,3.024,0,0,0-1.973,0l-2.668,0a4.162,4.162,0,0,0-2.36,0l-2.668,0a3.024,3.024,0,0,0-1.973,0l-2.668,0a4.162,4.162,0,0,0-2.36,0l-2.668,0a3.024,3.024,0,0,0-1.973,0l-2.668,0a4.162,4.162,0,0,0-2.36,0l-2.668,0a3.024,3.024,0,0,0-1.973,0l-2.668,0a4.162,4.162,0,0,0-2.36,0l-2.667,0a3.025,3.025,0,0,0-1.973,0l-2.667,0a4.164,4.164,0,0,0-2.361,0l-2.667,0a3.025,3.025,0,0,0-1.973,0l-2.667,0a4.164,4.164,0,0,0-2.361,0l-2.667,0a3.025,3.025,0,0,0-1.973,0l-2.667,0a4.164,4.164,0,0,0-2.361,0l-2.667,0a3.025,3.025,0,0,0-1.973,0l-2.667,0a4.164,4.164,0,0,0-2.361,0l-2.667,0a3.025,3.025,0,0,0-1.973,0l-2.667,0a4.164,4.164,0,0,0-2.361,0l-2.649-.029a2.874,2.874,0,0,0-2.009,0l-2.649.037a4.164,4.164,0,0,0-2.361,0l-2.667,0a3.024,3.024,0,0,0-1.973,0l-2.667,0a4.164,4.164,0,0,0-2.361,0l-2.667,0a3.024,3.024,0,0,0-1.973,0l-2.667,0a4.164,4.164,0,0,0-2.361,0l-2.667,0a3.025,3.025,0,0,0-1.973,0l-2.667,0a4.193,4.193,0,0,0-2.36-.006,3.079,3.079,0,0,1-3.235-2.58l.268-2.907.708-.97.719-.3,1.187-.343,2.679-.009,2.349-.015,2.292.015,2.349-.015a6.794,6.794,0,0,0,2.874-.017l4.362.25c-1.117-1.234-1.716-2.121-2.615-2.547-.5-.675-.756-1.618-1.454-2.063a2.483,2.483,0,0,0-.836-1.47c-.492-1.871-2.01-3.135-1.961-5.325a3.564,3.564,0,0,0-.28-1.913q.017-3.227.033-6.455a.262.262,0,0,0-.005-.367.206.206,0,0,0,.094-.27,2.4,2.4,0,0,0,.393-1.819,18.627,18.627,0,0,1,1.531-4.283,6.256,6.256,0,0,0,1.439-2.375l0-.013,2.482-2.891.558-.54a2.173,2.173,0,0,0,1.243-1.011l4.869-2.316,1.969-.311h2.3l2.363.318,4.9,2.286a1.99,1.99,0,0,0,1.225.965l.6.563,2.1,2.381.324.48,1.654,2.879a5.056,5.056,0,0,0,.963,2.342l.055.066.787,3.055q.121,1.427.243,2.853-.029,1.72-.057,3.441l-.4,2.947a36.191,36.191,0,0,1-2.085,5.657l-.756,1.114-1.449,2.092-2.179,2.052.163.456,3.563-.207a7.065,7.065,0,0,0,3.066-.025,3.114,3.114,0,0,0,1.965.018,5.153,5.153,0,0,0,2.494-.018,3.529,3.529,0,0,0,2.147.018l2.679.015,2.349-.015,2.292.015,2.349-.015,2.679.015,2.349-.015,2.292.015,2.349-.015,2.679.015,2.349-.015,2.292.015,2.349-.015,2.679.015,2.349-.015,2.292.015,2.349-.015,2.679.015,2.349-.015,2.292.015,2.349-.015,2.679.015,2.349-.015,2.292.015,2.349-.015,2.679.015,2.349-.015,2.292.015,2.349-.015,2.679.015,2.349-.015,2.292.015,2.349-.015,2.679.015,2.349-.015,2.292.015,2.349-.015,2.679.015,2.349-.015,2.292.015,2.349-.015,2.679.015,2.349-.015,2.292.015,2.349-.015,2.679.015,2.349-.015,2.292.015,2.349-.015,2.679.015,2.349-.015,2.292.015a1.394,1.394,0,0,0,1.525-.281l-1.484-1.184-.379-.444a5.137,5.137,0,0,0-1.549-2.011l-.828-1.379-1.6-3.928L185.322,368l.029.025-.618-3.483a9.717,9.717,0,0,0,0-3.507q.14-1.476.28-2.951a4.255,4.255,0,0,0,.609-2.366l.3-1.049a6.623,6.623,0,0,0,1.1-2.482,22.377,22.377,0,0,1,5.839-6.887l2.656-1.5.862-.315a.994.994,0,0,0,1.159-.307l2.279-.345,2.349,0,2.021.308a18.285,18.285,0,0,1,10.779,9.551,17.166,17.166,0,0,0,1.341,3.722,5.017,5.017,0,0,0,.541,2.172q.063.728.126,1.456l-.026,4.92q-.06.726-.12,1.45a2.105,2.105,0,0,0-.366,1.477l-.539,1.719-1.492,3.551-.013-.009-2.566,3.573-.395.522a2.29,2.29,0,0,0-1.42,1.355,1.421,1.421,0,0,0,1.424-.036l3.054.023,2.348-.015,2.293.015,2.348-.015,2.679.015,2.348-.015,2.293.015,2.348-.015,2.679.015,2.348-.015,1.915.109,1.865,1.584q.215,1.154.429,2.308a8.813,8.813,0,0,1-1.388,2.651l-.51.336ZM50.232,367.962h-.011a7.683,7.683,0,0,0,1.673-5.02l-.015-1.376a8.544,8.544,0,0,0-3.28-6.82,1.427,1.427,0,0,0-1.133-.639,2.2,2.2,0,0,0-1.961-.845c-1.83-.848-3.464-.141-5.041,1.019l-.372.326a4.947,4.947,0,0,0-2.38,2.88l-.007.015a5.886,5.886,0,0,0-1.024,3.543,8.858,8.858,0,0,0,1.655,7.017,3.546,3.546,0,0,0,2.165,2.249,5.71,5.71,0,0,0,7.341.015A3.6,3.6,0,0,0,50.232,367.962Zm156.617.049q.357-.108.336-.572c3.167-5.716.517-13.177-5.015-14.121a1.676,1.676,0,0,0-1.95-.067c-4.1.208-7.095,4.429-7.01,9.6.072,4.454,3.754,9.579,8.112,8.6a1.767,1.767,0,0,0,2.173-.459c.347,0,.589-.174.665-.63.323.069.64.123.711-.449C205.851,369.815,206.424,369.036,206.849,368.011Z" transform="translate(1145.617 -1210.702)" fill="#f17e5d"/>
      <path id="Tracé_3-4" data-name="Tracé 3" d="M121.759,202.511l1.079-1,2.385-1.611.721-.316a1.324,1.324,0,0,0,1.322-.472l.095.058.08-.087,2.721-.074,4.677,1.8c3.939,3.285,5.861,7.8,5.279,13.849a3.761,3.761,0,0,0-.693,2.433l-.292,1.023-1.287,2.4a11.57,11.57,0,0,1-8.052,5.006l-2.388-.188-2.272-.753a23.231,23.231,0,0,1-4.333-4.019c-.053-.333-.21-.524-.478-.563l-.556-.719a2.613,2.613,0,0,0-.541-1.683l-.484-1.9q-.23-2.255-.46-4.511.092-.725.184-1.45l1.323-4.313.676-1.124A3.674,3.674,0,0,0,121.759,202.511Z" transform="translate(1082.637 -1137.303)" fill="#f17e5d"/>
      <path id="Tracé_4-4" data-name="Tracé 4" d="M346.837,151.638a19.977,19.977,0,0,1,2.5-5.8,3.263,3.263,0,0,0,1.348-1.531l3.923-2.282,2.274-.371,2.656.38,2.224.907,0,.032c.612.983,1.567,1.3,2.354,1.94l.364.406,1.914,3.063a.376.376,0,0,0,.072.328,8.5,8.5,0,0,0,.877,2.938q.116,1.658.231,3.316-.053.539-.105,1.078l-.138.964c-.022.163-.044.326-.066.488a19.554,19.554,0,0,1-2.791,5.724,2.277,2.277,0,0,0-1.057,1.121c-5.279,3.642-9.613,3.262-13.669-1.117a19.228,19.228,0,0,1-1.775-2.828l-1.054-2.918-.27-2.881Z" transform="translate(942.583 -1108.035)" fill="#fcc468"/>
      <path id="Tracé_5-4" data-name="Tracé 5" d="M482.447,179.142a13.156,13.156,0,0,1-2.7,3.5l-2.54,1.62-2.075.518a2.924,2.924,0,0,0-2.022.031l-2.3-.688-2.321-1.549c-1.579-1.391-2.538-3.439-3.574-5.4q-.249-1.434-.5-2.867.029-1.772.057-3.543.343-1.354.685-2.707a2.653,2.653,0,0,0,.681-1.592l1.307-1.938a1.737,1.737,0,0,0,.977-1.013,7.787,7.787,0,0,0,2.388-1.914l-.008.011a4.464,4.464,0,0,0,2.652-.555h1.927l2.7.828c.455.431.963.2,1.455.186.165,1.732,1.483,2.094,2.28,3.075l.853,1.334a.608.608,0,0,0,.108.435l.319.526.025-.05.993,3.361a6.864,6.864,0,0,0,.133,3.016q-.3,1.677-.605,3.354A3.34,3.34,0,0,0,482.447,179.142Z" transform="translate(870.36 -1117.934)" fill="#6bd098"/>
      <path id="Tracé_6-4" data-name="Tracé 6" d="M44.441,234.155l-.376-.12-2.669-5.4q-.2-1.709-.4-3.418l.358-2.954c2.516-7.986,8.061-10.447,14.686-6.52l.772.727,1.934,2.453-.014-.019c.117,1.281.858,2.215,1.176,3.385q.142,1.742.284,3.484-.174,1.425-.348,2.85a5.049,5.049,0,0,0-.968,2.519,16.466,16.466,0,0,1-2.834,3.761,5.094,5.094,0,0,0-2.3,1.418l-.761.138-.376.07-1.1.269a4.3,4.3,0,0,0-2.409-.014l-2.654-1.017Z" transform="translate(1130.035 -1144.908)" fill="#6bd098"/>
      <path id="Tracé_7-4" data-name="Tracé 7" d="M505.981,223.616l.276-1.862,1.2-3.068.887-1.366a1.476,1.476,0,0,0,.857-.966l1.067-1.017L512.6,214.1l.692-.139a.86.86,0,0,0,1.183-.209l.757-.114a4.5,4.5,0,0,0,2.407.419l1.856.92a2.117,2.117,0,0,0,1.327.893l1.106,1.324a6.346,6.346,0,0,0,1.365,2.135c2.6,6.4.478,12.226-3.335,15.189a3.1,3.1,0,0,0-2,1.172l-2.636.437-2.37-.316-2.631-1.308c-.058-.345-.223-.521-.506-.508l-1.5-1.593-.954-1.476-.979-2.429Q506.184,226.057,505.981,223.616Z" transform="translate(844.872 -1144.772)" fill="#fcc468"/>
      <path id="Tracé_8-3" data-name="Tracé 8" d="M575.9,246.223l.748.914.949,2.424.127.914a15.884,15.884,0,0,1-.824,5.269,2.44,2.44,0,0,0-1.024,1.424l-2.31,1.552-.02-.012-2.251.221-1.349-.225-.915-.49a8.577,8.577,0,0,1-3.2-5.226q.017-1.492.034-2.982A8.4,8.4,0,0,1,569,245.136a1.542,1.542,0,0,0,1.374-.775l.412-.079a.628.628,0,0,0,.89.09l2.315.391A5.453,5.453,0,0,0,575.9,246.223Z" transform="translate(808.164 -1160.409)" fill="#51bcda"/>
      <path id="Tracé_9-4" data-name="Tracé 9" d="M23.2,265.977a10.132,10.132,0,0,1,3.485,3.795q.254,1.466.507,2.932-.3,1.69-.592,3.38a3.981,3.981,0,0,0-1.062,1.815l-1.917,1.628.015-.012-.727.293a.846.846,0,0,0-1.177.3l-.761.081-2.328-.712c-2.979-1.164-4.137-5.648-2.99-9.707a2.28,2.28,0,0,0,.762-1.374l.741-.955,1.449-1.146,2.3-.639Z" transform="translate(1145.843 -1171.316)" fill="#f17e5d"/>
      <path id="Tracé_10-4" data-name="Tracé 10" d="M315.295,175.808l.259,1.425a18.27,18.27,0,0,1-.731,4.888l-.432.753a8.43,8.43,0,0,1-4.9,2.234c-2.714-.472-3.986-2.821-4.74-5.843q.106-1.452.212-2.9a.2.2,0,0,0,.078-.268q.7-1.317,1.394-2.632l1.166-.978a3.609,3.609,0,0,0,1.908-.708l2.671.454A10.251,10.251,0,0,1,315.295,175.808Z" transform="translate(968.283 -1123.406)" fill="#51bcda"/>
      <path id="Tracé_11-4" data-name="Tracé 11" d="M194.905,214.285l-.763.11c-1.417-.335-2.873-.511-4.107-1.6l-.024-.026-1.395-3.2-.056-2.455,1.15-2.8a.22.22,0,0,0,.19-.154l2.359-1.707.681-.1,1.993.189,2.292,1.6,0,.019,1.309,2.955q-.113,1.685-.226,3.37l-1.063,1.973-.008.01Z" transform="translate(1039.537 -1139.012)" fill="#6bd098"/>
      <path id="Tracé_12-4" data-name="Tracé 12" d="M437.484,183.849q.252,1.7.5,3.4l-.6,2.366c-1.414,2.128-3.043,3.414-5.391,2.67-2.855-.906-4-3.321-3.472-7.657q.452-.868.908-1.736a5.214,5.214,0,0,1,4.223-2.082l.743.16,1.916,1.2A4.122,4.122,0,0,0,437.484,183.849Z" transform="translate(892.453 -1128.014)" fill="#f17e5d"/>
      <path id="Tracé_13-4" data-name="Tracé 13" d="M90.729,252.772l.394-.9c2.73-2.82,4.229-2.929,7.281-.527l.707,1.469.305,2.952c-1.142,4.855-5.063,5.976-7.563,3.143a6.627,6.627,0,0,1-1.353-3.148Q90.614,254.267,90.729,252.772Z" transform="translate(1099.674 -1163.146)" fill="#51bcda"/>
      <g id="Groupe_12" data-name="Groupe 12" transform="translate(1411.015 -966.379)">
        <path id="Tracé_1-5" data-name="Tracé 1" d="M15.966,282.38l-2.192-11.209c-.417-1.911-.366-3.987-1.256-5.732q0-.654,0-1.309l1.548-2.616c.093.036.159,0,.2-.114l3.832-2.129.741-.256a3.543,3.543,0,0,0,2.358-.678l.756-.152a3.409,3.409,0,0,0,1.982-.325,5.067,5.067,0,0,0,2.634-.384,5.069,5.069,0,0,0,2.4-.167l1.863-.092a3.847,3.847,0,0,0,2.75-.367l2.661-.124a24.7,24.7,0,0,0,7.066-.577l.661-.006a9.161,9.161,0,0,0,4.664-.378l4.284-.311,1.158.048a1.39,1.39,0,0,0,1.538-.161A5.113,5.113,0,0,0,58,255.123a3.508,3.508,0,0,0,2.263-.106,34.556,34.556,0,0,0,7.358-.5,5.1,5.1,0,0,0,2.4-1.634l.344-.232a4.758,4.758,0,0,0,2.354-2.273l.689-.8a9.62,9.62,0,0,0,2.219-2.452.274.274,0,0,0,.193-.279,6.835,6.835,0,0,0,2.213-2.644l.468-.352a4.929,4.929,0,0,0,1.855-2.1,2.915,2.915,0,0,0,1.217-1.386,1.4,1.4,0,0,0,.836-.969c4.036-4.487,8.046-9.013,12.122-13.443,1.538-1.672,2.776-3.857,4.8-4.752l2.315-.536,2.281-.149A25.565,25.565,0,0,0,110.98,220l.678,0a17.742,17.742,0,0,0,6.209-.436l.751-.067a3.1,3.1,0,0,0,2.387-.117l1.13-.032c2.136.072,4.284.449,6.383-.412l6.779-.18a4.005,4.005,0,0,0,2.323-.044l2.3-.044,1.184.047a19.75,19.75,0,0,0,6.546-.145l1.941-.057a2.7,2.7,0,0,0,2.7.059l2.335-.006a21.184,21.184,0,0,0,6.966.18l2.709.023.371.025a14.6,14.6,0,0,0,4.055.186c.715.779,1.593.437,2.394.509,2.548.231,5.114.286,7.5,1.658,4.516,3.722,7.956,8.958,11.842,13.561,4.411,5.225,8.7,10.61,13.051,15.92a4.6,4.6,0,0,0,2.119,1.625,2.142,2.142,0,0,0,1.866,1.052,32.627,32.627,0,0,0,7.49.524l1.521.139a8.627,8.627,0,0,0,3.5.4l2.3.136a4.483,4.483,0,0,0,2.349.3l2.282.272a2.972,2.972,0,0,0,2.341.341c3.355.7,6.749,1.155,9.977,2.626l-.024-.033c.326,1.128-.2,2.2-.137,3.31a2.881,2.881,0,0,0-.395,2.038l-.072.955a5.726,5.726,0,0,0-.441,2.928,7.945,7.945,0,0,0-.488,2.917,5.367,5.367,0,0,0-.481,3.015,9.837,9.837,0,0,0-.528,3.366,1.072,1.072,0,0,0-.289.99,23.558,23.558,0,0,0-.614,4.861.21.21,0,0,0-.083.266,1.871,1.871,0,0,0-.343,1.776l-.158,1.411a11.557,11.557,0,0,0-.77,4.444,11.074,11.074,0,0,1-.987,3.2,7.032,7.032,0,0,0-1.562,2.265,11.172,11.172,0,0,1-3.355,2.025,16.261,16.261,0,0,0-4.662,1.366l-1.55.448-2.415.261a5.978,5.978,0,0,0-.526-2.358,5.646,5.646,0,0,0-.544-2.841c-1.056-2.534-1.281-5.554-2.839-7.794a1.428,1.428,0,0,0-.522-1.26l-.272-.412a9.183,9.183,0,0,0-2.156-3.334l-.291-.348a6.3,6.3,0,0,0-2.42-2.552,14.146,14.146,0,0,0-6.988-3.809.948.948,0,0,0-1.16-.138l-1.54-.279c-1.56-.7-3.1-.313-4.647.114a5.618,5.618,0,0,0-2.664.377,9.349,9.349,0,0,0-5.083,2.04c-4.151,2.267-7.146,5.954-8.723,11.384-1.205,2.712-1.367,5.71-1.485,8.719l-.049.112a9.618,9.618,0,0,1-1.773,2.5.365.365,0,0,0-.308.115c-2.51,1.143-5.171.458-7.73,1.024h-.8a6.089,6.089,0,0,0-3.108.037l-2.651,0a3.739,3.739,0,0,0-2.382.031l-2.251.017a4.231,4.231,0,0,0-2.393.005l-2.628.035a3.731,3.731,0,0,0-2.41.029l-1.841.015c-5.078-.332-10.156-.092-15.234,0-3.972.072-7.955-.251-11.916.406a4.05,4.05,0,0,0-2.246.022,3.42,3.42,0,0,0-2.409.037,4.693,4.693,0,0,0-2.627.063,3.494,3.494,0,0,0-2.385-.014,3.149,3.149,0,0,0-2.238.025,3.171,3.171,0,0,0-2.429.015,4.971,4.971,0,0,0-2.642.062,2.044,2.044,0,0,0-1.968-.007.216.216,0,0,0-.349.038,1.553,1.553,0,0,0-1.557.06c-.371-.638-.78-.3-1.183-.072a2.815,2.815,0,0,0-1.9.053,5.844,5.844,0,0,0-2.713.015A2.517,2.517,0,0,0,91.6,302a4.555,4.555,0,0,0-2.323.037,38.571,38.571,0,0,0-9.647.052l-2.356.03c-.254-.3-.5-.39-.724.048l-1.921.091a2.9,2.9,0,0,0-2.381,0l-2.345.094a3.225,3.225,0,0,0-2.235-.011l-2.728-1.494c-.175-.434-.489-.344-.782-.333a2.1,2.1,0,0,0-1.186-1.426,3.877,3.877,0,0,0-1.046-1.7l-.281-1.226a4.393,4.393,0,0,0-.775-2.82c.074-.7-.348-1.118-.6-1.632-.614-2.237-1.05-4.574-2.263-6.477-1.741-3.9-3.87-7.271-7.388-8.771-.075-.683-.443-.509-.779-.426-.3-.488-.5-1.184-1.17-.967l-.925-.155a1.661,1.661,0,0,0-1.831-.525l-1.14-.136c-.232-.372-.471-.363-.714-.017l-.786.171a4.3,4.3,0,0,0-2.69.089,1.119,1.119,0,0,0-1.462.306,13.219,13.219,0,0,0-4.362,1.354,3.386,3.386,0,0,0-1.871,1.052,13.179,13.179,0,0,0-5.406,5.225,11.687,11.687,0,0,0-2.515,5.129c-.992,1.666-.974,3.729-1.382,5.625q-.008,2.2-.015,4.395c-.228,1.458-1.394,1.861-2.017,2.875l.013.009a1.675,1.675,0,0,1-1.955-.916c-.383-1.219-.237-2.653-.949-3.738l-.222-1.144a6.947,6.947,0,0,0-.488-2.5l-.314-1.9a9.271,9.271,0,0,0-.759-3.437L16.7,285.9A9.023,9.023,0,0,0,15.966,282.38Zm121.892-31.936a.733.733,0,0,0,.92.233,1.047,1.047,0,0,0,1.2.119l2.625.009a4.358,4.358,0,0,0,2.4-.009l2.624.009a3.2,3.2,0,0,0,2.016-.009l2.624.009a4.358,4.358,0,0,0,2.4-.009l2.624.009a3.2,3.2,0,0,0,2.016-.009l2.624.009a4.358,4.358,0,0,0,2.4-.009l2.624.009a3.2,3.2,0,0,0,2.016-.009l2.624.009a4.358,4.358,0,0,0,2.4-.009l2.624.009,1.966.053c.922.142,1.86.448,2.689-.406l.772-.438c.972-.385,1.265-1.052.552-2.135a3.574,3.574,0,0,0-.955-1.68.546.546,0,0,0-.432-.639,105.725,105.725,0,0,0-5.6-9.254,7.778,7.778,0,0,0-1.693-2.8l-.021-.033a10.7,10.7,0,0,0-1.886-3.244.281.281,0,0,0-.146-.266,8.293,8.293,0,0,0-1.515-2.459,2.741,2.741,0,0,0-1.388-1.743,1.667,1.667,0,0,0-1.607-1.128c-.413-.618-.972-.556-1.524-.526a.8.8,0,0,0-1.182-.055,7.446,7.446,0,0,0-3.059-.023,1.4,1.4,0,0,0-1.581.025,7.735,7.735,0,0,0-3.059-.025,1.4,1.4,0,0,0-1.581.025,9.578,9.578,0,0,0-3.446-.025,1.4,1.4,0,0,0-1.581.025,7.735,7.735,0,0,0-3.059-.025,1.4,1.4,0,0,0-1.581.025,9.578,9.578,0,0,0-3.446-.025,1.4,1.4,0,0,0-1.581.025,17,17,0,0,0-2.277-.113c-1.1.085-2.222.267-2.266,2.175-.346,6.718-.083,13.443-.131,20.165a3.473,3.473,0,0,0,.35,2.308,2.14,2.14,0,0,0,1.474,1.822ZM114.432,224.7l-.8.044a5.651,5.651,0,0,0-2.682.04l-1.965.034a5.584,5.584,0,0,0-2.649.056c-1.182-.118-2.377-.462-3.5.349a2.069,2.069,0,0,0-1.593.818,2.352,2.352,0,0,0-1.606,1.468l-.727.952a3.994,3.994,0,0,0-1.59,1.989l-.731.948a3.827,3.827,0,0,0-1.58,2,2.809,2.809,0,0,0-1.136,1.414,3.04,3.04,0,0,0-1.174,1.53c-2.878,3.59-5.772,7.161-8.619,10.788-.553.7-1.435,1.447-.945,2.679.48,1.208,1.48,1.074,2.387,1.075,5.335.006,10.671.034,16.006.038,8.164.007,16.328.029,24.492-.017,2.554-.015,3.956-1.977,3.934-5.231a5.533,5.533,0,0,0,.01-2.415,10.392,10.392,0,0,0,.038-3.431,5.1,5.1,0,0,0,.007-2.969,10.382,10.382,0,0,0-.051-3.428,5.591,5.591,0,0,0,.007-2.414,7.979,7.979,0,0,0-.059-3.453c-.035-1.385-.49-2.387-1.591-2.8a2.871,2.871,0,0,0-2.648-.434,3.558,3.558,0,0,0-2.4.078l-2.224.1A19.655,19.655,0,0,0,114.432,224.7Z" transform="translate(-12.514 -180.88)" fill="#6bd098" stroke="#6bd098" stroke-width="1"/>
        <path id="Tracé_2-5" data-name="Tracé 2" d="M236.548,385.7l-2.667,0a4.164,4.164,0,0,0-2.361,0l-2.667,0a3.026,3.026,0,0,0-1.974,0l-2.667,0a4.164,4.164,0,0,0-2.361,0l-2.667,0a3.026,3.026,0,0,0-1.974,0l-2.667,0a4.164,4.164,0,0,0-2.361,0l-2.667,0a3.026,3.026,0,0,0-1.974,0l-2.667,0a4.163,4.163,0,0,0-2.36,0l-2.668,0a3.024,3.024,0,0,0-1.973,0l-2.668,0a4.162,4.162,0,0,0-2.36,0l-2.668,0a3.024,3.024,0,0,0-1.973,0l-2.668,0a4.162,4.162,0,0,0-2.36,0l-2.668,0a3.024,3.024,0,0,0-1.973,0l-2.668,0a4.161,4.161,0,0,0-2.36,0l-2.668,0a3.024,3.024,0,0,0-1.973,0l-2.668,0a4.162,4.162,0,0,0-2.36,0l-2.668,0a3.024,3.024,0,0,0-1.973,0l-2.668,0a4.162,4.162,0,0,0-2.36,0l-2.668,0a3.024,3.024,0,0,0-1.973,0l-2.668,0a4.162,4.162,0,0,0-2.36,0l-2.668,0a3.024,3.024,0,0,0-1.973,0l-2.668,0a4.162,4.162,0,0,0-2.36,0l-2.668,0a3.024,3.024,0,0,0-1.973,0l-2.668,0a4.162,4.162,0,0,0-2.36,0l-2.668,0a3.024,3.024,0,0,0-1.973,0l-2.668,0a4.162,4.162,0,0,0-2.36,0l-2.668,0a3.024,3.024,0,0,0-1.973,0l-2.668,0a4.162,4.162,0,0,0-2.36,0l-2.667,0a3.025,3.025,0,0,0-1.973,0l-2.667,0a4.164,4.164,0,0,0-2.361,0l-2.667,0a3.025,3.025,0,0,0-1.973,0l-2.667,0a4.164,4.164,0,0,0-2.361,0l-2.667,0a3.025,3.025,0,0,0-1.973,0l-2.667,0a4.164,4.164,0,0,0-2.361,0l-2.667,0a3.025,3.025,0,0,0-1.973,0l-2.667,0a4.164,4.164,0,0,0-2.361,0l-2.667,0a3.025,3.025,0,0,0-1.973,0l-2.667,0a4.164,4.164,0,0,0-2.361,0l-2.649-.029a2.874,2.874,0,0,0-2.009,0l-2.649.037a4.164,4.164,0,0,0-2.361,0l-2.667,0a3.024,3.024,0,0,0-1.973,0l-2.667,0a4.164,4.164,0,0,0-2.361,0l-2.667,0a3.024,3.024,0,0,0-1.973,0l-2.667,0a4.164,4.164,0,0,0-2.361,0l-2.667,0a3.025,3.025,0,0,0-1.973,0l-2.667,0a4.193,4.193,0,0,0-2.36-.006,3.079,3.079,0,0,1-3.235-2.58l.268-2.907.708-.97.719-.3,1.187-.343,2.679-.009,2.349-.015,2.292.015,2.349-.015a6.794,6.794,0,0,0,2.874-.017l4.362.25c-1.117-1.234-1.716-2.121-2.615-2.547-.5-.675-.756-1.618-1.454-2.063a2.483,2.483,0,0,0-.836-1.47c-.492-1.871-2.01-3.135-1.961-5.325a3.564,3.564,0,0,0-.28-1.913q.017-3.227.033-6.455a.262.262,0,0,0-.005-.367.206.206,0,0,0,.094-.27,2.4,2.4,0,0,0,.393-1.819,18.627,18.627,0,0,1,1.531-4.283,6.256,6.256,0,0,0,1.439-2.375l0-.013,2.482-2.891.558-.54a2.173,2.173,0,0,0,1.243-1.011l4.869-2.316,1.969-.311h2.3l2.363.318,4.9,2.286a1.99,1.99,0,0,0,1.225.965l.6.563,2.1,2.381.324.48,1.654,2.879a5.056,5.056,0,0,0,.963,2.342l.055.066.787,3.055q.121,1.427.243,2.853-.029,1.72-.057,3.441l-.4,2.947a36.191,36.191,0,0,1-2.085,5.657l-.756,1.114-1.449,2.092-2.179,2.052.163.456,3.563-.207a7.065,7.065,0,0,0,3.066-.025,3.114,3.114,0,0,0,1.965.018,5.153,5.153,0,0,0,2.494-.018,3.529,3.529,0,0,0,2.147.018l2.679.015,2.349-.015,2.292.015,2.349-.015,2.679.015,2.349-.015,2.292.015,2.349-.015,2.679.015,2.349-.015,2.292.015,2.349-.015,2.679.015,2.349-.015,2.292.015,2.349-.015,2.679.015,2.349-.015,2.292.015,2.349-.015,2.679.015,2.349-.015,2.292.015,2.349-.015,2.679.015,2.349-.015,2.292.015,2.349-.015,2.679.015,2.349-.015,2.292.015,2.349-.015,2.679.015,2.349-.015,2.292.015,2.349-.015,2.679.015,2.349-.015,2.292.015,2.349-.015,2.679.015,2.349-.015,2.292.015,2.349-.015,2.679.015,2.349-.015,2.292.015,2.349-.015,2.679.015,2.349-.015,2.292.015a1.394,1.394,0,0,0,1.525-.281l-1.484-1.184-.379-.444a5.137,5.137,0,0,0-1.549-2.011l-.828-1.379-1.6-3.928L185.322,368l.029.025-.618-3.483a9.717,9.717,0,0,0,0-3.507q.14-1.476.28-2.951a4.255,4.255,0,0,0,.609-2.366l.3-1.049a6.623,6.623,0,0,0,1.1-2.482,22.377,22.377,0,0,1,5.839-6.887l2.656-1.5.862-.315a.994.994,0,0,0,1.159-.307l2.279-.345,2.349,0,2.021.308a18.285,18.285,0,0,1,10.779,9.551,17.166,17.166,0,0,0,1.341,3.722,5.017,5.017,0,0,0,.541,2.172q.063.728.126,1.456l-.026,4.92q-.06.726-.12,1.45a2.105,2.105,0,0,0-.366,1.477l-.539,1.719-1.492,3.551-.013-.009-2.566,3.573-.395.522a2.29,2.29,0,0,0-1.42,1.355,1.421,1.421,0,0,0,1.424-.036l3.054.023,2.348-.015,2.293.015,2.348-.015,2.679.015,2.348-.015,2.293.015,2.348-.015,2.679.015,2.348-.015,1.915.109,1.865,1.584q.215,1.154.429,2.308a8.813,8.813,0,0,1-1.388,2.651l-.51.336ZM50.232,367.962h-.011a7.683,7.683,0,0,0,1.673-5.02l-.015-1.376a8.544,8.544,0,0,0-3.28-6.82,1.427,1.427,0,0,0-1.133-.639,2.2,2.2,0,0,0-1.961-.845c-1.83-.848-3.464-.141-5.041,1.019l-.372.326a4.947,4.947,0,0,0-2.38,2.88l-.007.015a5.886,5.886,0,0,0-1.024,3.543,8.858,8.858,0,0,0,1.655,7.017,3.546,3.546,0,0,0,2.165,2.249,5.71,5.71,0,0,0,7.341.015A3.6,3.6,0,0,0,50.232,367.962Zm156.617.049q.357-.108.336-.572c3.167-5.716.517-13.177-5.015-14.121a1.676,1.676,0,0,0-1.95-.067c-4.1.208-7.095,4.429-7.01,9.6.072,4.454,3.754,9.579,8.112,8.6a1.767,1.767,0,0,0,2.173-.459c.347,0,.589-.174.665-.63.323.069.64.123.711-.449C205.851,369.815,206.424,369.036,206.849,368.011Z" transform="translate(-14.397 -244.322)" fill="#6bd098"/>
        <path id="Tracé_3-5" data-name="Tracé 3" d="M121.759,202.511l1.079-1,2.385-1.611.721-.316a1.324,1.324,0,0,0,1.322-.472l.095.058.08-.087,2.721-.074,4.677,1.8c3.939,3.285,5.861,7.8,5.279,13.849a3.761,3.761,0,0,0-.693,2.433l-.292,1.023-1.287,2.4a11.57,11.57,0,0,1-8.052,5.006l-2.388-.188-2.272-.753a23.231,23.231,0,0,1-4.333-4.019c-.053-.333-.21-.524-.478-.563l-.556-.719a2.613,2.613,0,0,0-.541-1.683l-.484-1.9q-.23-2.255-.46-4.511.092-.725.184-1.45l1.323-4.313.676-1.124A3.674,3.674,0,0,0,121.759,202.511Z" transform="translate(-77.378 -170.924)" fill="#f17e5d"/>
        <path id="Tracé_4-5" data-name="Tracé 4" d="M346.837,151.638a19.977,19.977,0,0,1,2.5-5.8,3.263,3.263,0,0,0,1.348-1.531l3.923-2.282,2.274-.371,2.656.38,2.224.907,0,.032c.612.983,1.567,1.3,2.354,1.94l.364.406,1.914,3.063a.376.376,0,0,0,.072.328,8.5,8.5,0,0,0,.877,2.938q.116,1.658.231,3.316-.053.539-.105,1.078l-.138.964c-.022.163-.044.326-.066.488a19.554,19.554,0,0,1-2.791,5.724,2.277,2.277,0,0,0-1.057,1.121c-5.279,3.642-9.613,3.262-13.669-1.117a19.228,19.228,0,0,1-1.775-2.828l-1.054-2.918-.27-2.881Z" transform="translate(-217.432 -141.656)" fill="#fcc468"/>
        <path id="Tracé_5-5" data-name="Tracé 5" d="M482.447,179.142a13.156,13.156,0,0,1-2.7,3.5l-2.54,1.62-2.075.518a2.924,2.924,0,0,0-2.022.031l-2.3-.688-2.321-1.549c-1.579-1.391-2.538-3.439-3.574-5.4q-.249-1.434-.5-2.867.029-1.772.057-3.543.343-1.354.685-2.707a2.653,2.653,0,0,0,.681-1.592l1.307-1.938a1.737,1.737,0,0,0,.977-1.013,7.787,7.787,0,0,0,2.388-1.914l-.008.011a4.464,4.464,0,0,0,2.652-.555h1.927l2.7.828c.455.431.963.2,1.455.186.165,1.732,1.483,2.094,2.28,3.075l.853,1.334a.608.608,0,0,0,.108.435l.319.526.025-.05.993,3.361a6.864,6.864,0,0,0,.133,3.016q-.3,1.677-.605,3.354A3.34,3.34,0,0,0,482.447,179.142Z" transform="translate(-289.655 -151.555)" fill="#6bd098"/>
        <path id="Tracé_6-5" data-name="Tracé 6" d="M44.441,234.155l-.376-.12-2.669-5.4q-.2-1.709-.4-3.418l.358-2.954c2.516-7.986,8.061-10.447,14.686-6.52l.772.727,1.934,2.453-.014-.019c.117,1.281.858,2.215,1.176,3.385q.142,1.742.284,3.484-.174,1.425-.348,2.85a5.049,5.049,0,0,0-.968,2.519,16.466,16.466,0,0,1-2.834,3.761,5.094,5.094,0,0,0-2.3,1.418l-.761.138-.376.07-1.1.269a4.3,4.3,0,0,0-2.409-.014l-2.654-1.017Z" transform="translate(-29.979 -178.529)" fill="#6bd098"/>
        <path id="Tracé_7-5" data-name="Tracé 7" d="M505.981,223.616l.276-1.862,1.2-3.068.887-1.366a1.476,1.476,0,0,0,.857-.966l1.067-1.017L512.6,214.1l.692-.139a.86.86,0,0,0,1.183-.209l.757-.114a4.5,4.5,0,0,0,2.407.419l1.856.92a2.117,2.117,0,0,0,1.327.893l1.106,1.324a6.346,6.346,0,0,0,1.365,2.135c2.6,6.4.478,12.226-3.335,15.189a3.1,3.1,0,0,0-2,1.172l-2.636.437-2.37-.316-2.631-1.308c-.058-.345-.223-.521-.506-.508l-1.5-1.593-.954-1.476-.979-2.429Q506.184,226.057,505.981,223.616Z" transform="translate(-315.143 -178.392)" fill="#fcc468"/>
        <path id="Tracé_8-4" data-name="Tracé 8" d="M575.9,246.223l.748.914.949,2.424.127.914a15.884,15.884,0,0,1-.824,5.269,2.44,2.44,0,0,0-1.024,1.424l-2.31,1.552-.02-.012-2.251.221-1.349-.225-.915-.49a8.577,8.577,0,0,1-3.2-5.226q.017-1.492.034-2.982A8.4,8.4,0,0,1,569,245.136a1.542,1.542,0,0,0,1.374-.775l.412-.079a.628.628,0,0,0,.89.09l2.315.391A5.453,5.453,0,0,0,575.9,246.223Z" transform="translate(-351.851 -194.03)" fill="#51bcda"/>
        <path id="Tracé_9-5" data-name="Tracé 9" d="M23.2,265.977a10.132,10.132,0,0,1,3.485,3.795q.254,1.466.507,2.932-.3,1.69-.592,3.38a3.981,3.981,0,0,0-1.062,1.815l-1.917,1.628.015-.012-.727.293a.846.846,0,0,0-1.177.3l-.761.081-2.328-.712c-2.979-1.164-4.137-5.648-2.99-9.707a2.28,2.28,0,0,0,.762-1.374l.741-.955,1.449-1.146,2.3-.639Z" transform="translate(-14.171 -204.937)" fill="#f17e5d"/>
        <path id="Tracé_10-5" data-name="Tracé 10" d="M315.295,175.808l.259,1.425a18.27,18.27,0,0,1-.731,4.888l-.432.753a8.43,8.43,0,0,1-4.9,2.234c-2.714-.472-3.986-2.821-4.74-5.843q.106-1.452.212-2.9a.2.2,0,0,0,.078-.268q.7-1.317,1.394-2.632l1.166-.978a3.609,3.609,0,0,0,1.908-.708l2.671.454A10.251,10.251,0,0,1,315.295,175.808Z" transform="translate(-191.732 -157.027)" fill="#51bcda"/>
        <path id="Tracé_11-5" data-name="Tracé 11" d="M194.905,214.285l-.763.11c-1.417-.335-2.873-.511-4.107-1.6l-.024-.026-1.395-3.2-.056-2.455,1.15-2.8a.22.22,0,0,0,.19-.154l2.359-1.707.681-.1,1.993.189,2.292,1.6,0,.019,1.309,2.955q-.113,1.685-.226,3.37l-1.063,1.973-.008.01Z" transform="translate(-120.478 -172.633)" fill="#6bd098"/>
        <path id="Tracé_12-5" data-name="Tracé 12" d="M437.484,183.849q.252,1.7.5,3.4l-.6,2.366c-1.414,2.128-3.043,3.414-5.391,2.67-2.855-.906-4-3.321-3.472-7.657q.452-.868.908-1.736a5.214,5.214,0,0,1,4.223-2.082l.743.16,1.916,1.2A4.122,4.122,0,0,0,437.484,183.849Z" transform="translate(-267.561 -161.635)" fill="#f17e5d"/>
        <path id="Tracé_13-5" data-name="Tracé 13" d="M90.729,252.772l.394-.9c2.73-2.82,4.229-2.929,7.281-.527l.707,1.469.305,2.952c-1.142,4.855-5.063,5.976-7.563,3.143a6.627,6.627,0,0,1-1.353-3.148Q90.614,254.267,90.729,252.772Z" transform="translate(-60.341 -196.766)" fill="#51bcda"/>
      </g>
      <g id="Rectangle_1" data-name="Rectangle 1" transform="translate(-414.057 -817.298)" fill="#fff" stroke="#707070" stroke-width="1">
        <rect width="2061.928" height="16" rx="8" stroke="none"/>
        <rect x="0.5" y="0.5" width="2060.928" height="15" rx="7.5" fill="none"/>
      </g>
    </g>
    <g id="Groupe_34" data-name="Groupe 34" transform="translate(-40 -27)">
      <line id="Ligne_2" data-name="Ligne 2" y1="167.198" x2="0.23" transform="translate(-5620.231 -2974.804)" fill="none" stroke="#fcc468" stroke-linecap="round" stroke-width="10"/>
      <line id="Ligne_5" data-name="Ligne 5" x2="245.35" transform="translate(-5620.001 -2974.804)" fill="none" stroke="#fcc468" stroke-linecap="round" stroke-width="10"/>
      <line id="Ligne_7" data-name="Ligne 7" x2="110.108" transform="translate(-5552.999 -3046.497)" fill="none" stroke="#fcc468" stroke-linecap="round" stroke-width="10"/>
      <line id="Ligne_8" data-name="Ligne 8" y1="71.83" x2="0.23" transform="translate(-5553.229 -3046.791)" fill="none" stroke="#fcc468" stroke-linecap="round" stroke-width="10"/>
      <line id="Ligne_9" data-name="Ligne 9" y1="71.83" x2="0.23" transform="translate(-5440.822 -3046.791)" fill="none" stroke="#fcc468" stroke-linecap="round" stroke-width="10"/>
      <line id="Ligne_10" data-name="Ligne 10" y1="45.988" x2="0.23" transform="translate(-5490.658 -3097.244)" fill="none" stroke="#fcc468" stroke-linecap="round" stroke-width="10"/>
      <g id="Groupe_29" data-name="Groupe 29" transform="translate(-5370.498 -3074.021)">
        <line id="Ligne_2-2" data-name="Ligne 2" y1="392.528" transform="translate(0 0.019)" fill="none" stroke="#51bcda" stroke-linecap="round" stroke-width="10"/>
        <line id="Ligne_3" data-name="Ligne 3" y1="0.019" x2="225.369" transform="translate(0 0)" fill="none" stroke="#51bcda" stroke-linecap="round" stroke-width="10"/>
        <line id="Ligne_4" data-name="Ligne 4" y2="783.229" transform="translate(225.1 0.634)" fill="none" stroke="#51bcda" stroke-linecap="round" stroke-width="10"/>
        <path id="Tracé_198" data-name="Tracé 198" d="M0,.019,225.369,0" transform="translate(0 783.863)" fill="none" stroke="#51bcda" stroke-linecap="round" stroke-width="10"/>
      </g>
      <line id="Ligne_3-2" data-name="Ligne 3" x2="245.35" transform="translate(-5503.163 -2682.547)" fill="none" stroke="#6bd098" stroke-linecap="round" stroke-width="10"/>
      <line id="Ligne_2-3" data-name="Ligne 2" y1="517.493" transform="translate(-5753.351 -2807.65)" fill="none" stroke="#f17e5d" stroke-linecap="round" stroke-width="10"/>
      <line id="Ligne_16" data-name="Ligne 16" x2="245.35" transform="translate(-5509.808 -2290)" fill="none" stroke="#6bd098" stroke-linecap="round" stroke-width="10"/>
      <line id="Ligne_15" data-name="Ligne 15" x2="249.957" transform="translate(-5753.905 -2290.203)" fill="none" stroke="#f17e5d" stroke-linecap="round" stroke-width="10"/>
      <rect id="Rectangle_11" data-name="Rectangle 11" width="240" height="393" transform="translate(-5498 -2683)" fill="#6bd098"/>
      <line id="Ligne_4-2" data-name="Ligne 4" y2="392.389" transform="translate(-5257.813 -2682.547)" fill="none" stroke="#6bd098" stroke-linecap="round" stroke-width="10"/>
      <path id="Tracé_195" data-name="Tracé 195" d="M265.625,581.855c6.9,0,12.5-6.125,12.5-13.679V312.828c0-7.557-5.6-13.679-12.5-13.679s-12.5,6.122-12.5,13.679V568.177C253.124,575.731,258.72,581.855,265.625,581.855Z" transform="translate(-5694.399 -2909.712)" fill="#f5f5f5"/>
      <path id="Tracé_196" data-name="Tracé 196" d="M300.142,581.855c6.9,0,12.5-6.125,12.5-13.679V312.828c0-7.557-5.6-13.679-12.5-13.679s-12.5,6.122-12.5,13.679V568.177C287.64,575.731,293.237,581.855,300.142,581.855Z" transform="translate(-5678.913 -2909.712)" fill="#f5f5f5"/>
      <path id="Tracé_197" data-name="Tracé 197" d="M334.658,581.855c6.9,0,12.5-6.125,12.5-13.679V312.828c0-7.557-5.6-13.679-12.5-13.679s-12.5,6.122-12.5,13.679V568.177C322.157,575.731,327.755,581.855,334.658,581.855Z" transform="translate(-5663.426 -2909.712)" fill="#f5f5f5"/>
      <rect id="Rectangle_12" data-name="Rectangle 12" width="244" height="167" transform="translate(-5619 -2975)" fill="#fcc468"/>
      <rect id="Rectangle_13" data-name="Rectangle 13" width="124" height="162" transform="translate(-5499 -2844)" fill="#fcc468"/>
      <line id="Ligne_3-3" data-name="Ligne 3" x2="249.957" transform="translate(-5753.351 -2807.65)" fill="none" stroke="#f17e5d" stroke-linecap="round" stroke-width="10"/>
      <line id="Ligne_11" data-name="Ligne 11" x2="49.282" transform="translate(-5496.534 -2786.995)" fill="none" stroke="#f5f5f5" stroke-linecap="round" stroke-width="10"/>
      <line id="Ligne_13" data-name="Ligne 13" x2="99.672" transform="translate(-5546.924 -2852.83)" fill="none" stroke="#f5f5f5" stroke-linecap="round" stroke-width="10"/>
      <line id="Ligne_14" data-name="Ligne 14" x2="99.672" transform="translate(-5546.924 -2918.664)" fill="none" stroke="#f5f5f5" stroke-linecap="round" stroke-width="10"/>
      <line id="Ligne_4-3" data-name="Ligne 4" y2="517.493" transform="translate(-5503.394 -2807.65)" fill="none" stroke="#f17e5d" stroke-linecap="round" stroke-width="10"/>
      <rect id="Rectangle_14" data-name="Rectangle 14" width="250" height="518" transform="translate(-5753 -2808)" fill="#f17e5d"/>
      <g id="Groupe_30" data-name="Groupe 30" transform="translate(-5691.116 -2741.935)">
        <path id="Tracé_171" data-name="Tracé 171" d="M104.546,264.2c6.9,0,12.5-6.122,12.5-13.679v-18.24c0-7.557-5.6-13.679-12.5-13.679s-12.5,6.122-12.5,13.679v18.24C92.045,258.081,97.643,264.2,104.546,264.2Z" transform="translate(-92.045 -218.607)" fill="#f5f5f5"/>
        <path id="Tracé_172" data-name="Tracé 172" d="M139.063,264.2c6.9,0,12.5-6.122,12.5-13.679v-18.24c0-7.557-5.6-13.679-12.5-13.679s-12.5,6.122-12.5,13.679v18.24C126.562,258.081,132.158,264.2,139.063,264.2Z" transform="translate(-76.558 -218.607)" fill="#f5f5f5"/>
        <path id="Tracé_173" data-name="Tracé 173" d="M173.58,264.2c6.9,0,12.5-6.122,12.5-13.679v-18.24c0-7.557-5.6-13.679-12.5-13.679s-12.5,6.122-12.5,13.679v18.24C161.079,258.081,166.675,264.2,173.58,264.2Z" transform="translate(-61.071 -218.607)" fill="#f5f5f5"/>
        <path id="Tracé_174" data-name="Tracé 174" d="M104.546,321.733c6.9,0,12.5-6.122,12.5-13.679v-18.24c0-7.557-5.6-13.679-12.5-13.679s-12.5,6.122-12.5,13.679v18.24C92.045,315.609,97.643,321.733,104.546,321.733Z" transform="translate(-92.045 -184.939)" fill="#f5f5f5"/>
        <path id="Tracé_175" data-name="Tracé 175" d="M139.063,321.733c6.9,0,12.5-6.122,12.5-13.679v-18.24c0-7.557-5.6-13.679-12.5-13.679s-12.5,6.122-12.5,13.679v18.24C126.562,315.609,132.158,321.733,139.063,321.733Z" transform="translate(-76.558 -184.939)" fill="#f5f5f5"/>
        <path id="Tracé_176" data-name="Tracé 176" d="M173.58,321.733c6.9,0,12.5-6.122,12.5-13.679v-18.24c0-7.557-5.6-13.679-12.5-13.679s-12.5,6.122-12.5,13.679v18.24C161.079,315.609,166.675,321.733,173.58,321.733Z" transform="translate(-61.071 -184.939)" fill="#f5f5f5"/>
        <path id="Tracé_177" data-name="Tracé 177" d="M104.546,379.261c6.9,0,12.5-6.122,12.5-13.679v-18.24c0-7.557-5.6-13.679-12.5-13.679s-12.5,6.122-12.5,13.679v18.24C92.045,373.139,97.643,379.261,104.546,379.261Z" transform="translate(-92.045 -151.272)" fill="#f5f5f5"/>
        <path id="Tracé_178" data-name="Tracé 178" d="M139.063,379.261c6.9,0,12.5-6.122,12.5-13.679v-18.24c0-7.557-5.6-13.679-12.5-13.679s-12.5,6.122-12.5,13.679v18.24C126.562,373.139,132.158,379.261,139.063,379.261Z" transform="translate(-76.558 -151.272)" fill="#f5f5f5"/>
        <path id="Tracé_179" data-name="Tracé 179" d="M173.58,379.261c6.9,0,12.5-6.122,12.5-13.679v-18.24c0-7.557-5.6-13.679-12.5-13.679s-12.5,6.122-12.5,13.679v18.24C161.079,373.139,166.675,379.261,173.58,379.261Z" transform="translate(-61.071 -151.272)" fill="#f5f5f5"/>
        <path id="Tracé_180" data-name="Tracé 180" d="M104.546,436.789c6.9,0,12.5-6.122,12.5-13.679V404.87c0-7.557-5.6-13.679-12.5-13.679s-12.5,6.122-12.5,13.679v18.24C92.045,430.667,97.643,436.789,104.546,436.789Z" transform="translate(-92.045 -117.604)" fill="#f5f5f5"/>
        <path id="Tracé_181" data-name="Tracé 181" d="M139.063,436.789c6.9,0,12.5-6.122,12.5-13.679V404.87c0-7.557-5.6-13.679-12.5-13.679s-12.5,6.122-12.5,13.679v18.24C126.562,430.667,132.158,436.789,139.063,436.789Z" transform="translate(-76.558 -117.604)" fill="#f5f5f5"/>
        <path id="Tracé_182" data-name="Tracé 182" d="M173.58,436.789c6.9,0,12.5-6.122,12.5-13.679V404.87c0-7.557-5.6-13.679-12.5-13.679s-12.5,6.122-12.5,13.679v18.24C161.079,430.667,166.675,436.789,173.58,436.789Z" transform="translate(-61.071 -117.604)" fill="#f5f5f5"/>
      </g>
      <rect id="Rectangle_15" data-name="Rectangle 15" width="221" height="391" transform="translate(-5366 -3075)" fill="#51bcda"/>
      <path id="Tracé_165" data-name="Tracé 165" d="M173.58,436.789c6.9,0,12.5-6.122,12.5-13.679V404.87c0-7.557-5.6-13.679-12.5-13.679s-12.5,6.122-12.5,13.679v18.24C161.079,430.667,166.675,436.789,173.58,436.789Z" transform="translate(-5802.022 -2732.792)" fill="#f5f5f5" stroke="#f5f5f5" stroke-width="1"/>
      <rect id="Rectangle_16" data-name="Rectangle 16" width="112" height="394" transform="translate(-5257 -2684)" fill="#51bcda"/>
      <g id="Groupe_26" data-name="Groupe 26" transform="translate(-5657.567 -2370.759)">
        <line id="Ligne_2-4" data-name="Ligne 2" y1="74.757" fill="none" stroke="#f5f5f5" stroke-linecap="round" stroke-width="10"/>
        <line id="Ligne_3-4" data-name="Ligne 3" x2="57.521" fill="none" stroke="#f5f5f5" stroke-linecap="round" stroke-width="10"/>
        <line id="Ligne_4-4" data-name="Ligne 4" y2="74.757" transform="translate(57.521)" fill="none" stroke="#f5f5f5" stroke-linecap="round" stroke-width="10"/>
      </g>
      <g id="Groupe_24" data-name="Groupe 24" transform="translate(-5320.115 -3046.497)">
        <path id="Tracé_171-2" data-name="Tracé 171" d="M104.546,264.2c6.9,0,12.5-6.122,12.5-13.679v-18.24c0-7.557-5.6-13.679-12.5-13.679s-12.5,6.122-12.5,13.679v18.24C92.045,258.081,97.643,264.2,104.546,264.2Z" transform="translate(-92.045 -218.607)" fill="#f5f5f5"/>
        <path id="Tracé_172-2" data-name="Tracé 172" d="M139.063,264.2c6.9,0,12.5-6.122,12.5-13.679v-18.24c0-7.557-5.6-13.679-12.5-13.679s-12.5,6.122-12.5,13.679v18.24C126.562,258.081,132.158,264.2,139.063,264.2Z" transform="translate(-76.558 -218.607)" fill="#f5f5f5"/>
        <path id="Tracé_173-2" data-name="Tracé 173" d="M173.58,264.2c6.9,0,12.5-6.122,12.5-13.679v-18.24c0-7.557-5.6-13.679-12.5-13.679s-12.5,6.122-12.5,13.679v18.24C161.079,258.081,166.675,264.2,173.58,264.2Z" transform="translate(-61.071 -218.607)" fill="#f5f5f5"/>
        <path id="Tracé_174-2" data-name="Tracé 174" d="M104.546,321.733c6.9,0,12.5-6.122,12.5-13.679v-18.24c0-7.557-5.6-13.679-12.5-13.679s-12.5,6.122-12.5,13.679v18.24C92.045,315.609,97.643,321.733,104.546,321.733Z" transform="translate(-92.045 -184.939)" fill="#f5f5f5"/>
        <path id="Tracé_175-2" data-name="Tracé 175" d="M139.063,321.733c6.9,0,12.5-6.122,12.5-13.679v-18.24c0-7.557-5.6-13.679-12.5-13.679s-12.5,6.122-12.5,13.679v18.24C126.562,315.609,132.158,321.733,139.063,321.733Z" transform="translate(-76.558 -184.939)" fill="#f5f5f5"/>
        <path id="Tracé_176-2" data-name="Tracé 176" d="M173.58,321.733c6.9,0,12.5-6.122,12.5-13.679v-18.24c0-7.557-5.6-13.679-12.5-13.679s-12.5,6.122-12.5,13.679v18.24C161.079,315.609,166.675,321.733,173.58,321.733Z" transform="translate(-61.071 -184.939)" fill="#f5f5f5"/>
        <path id="Tracé_177-2" data-name="Tracé 177" d="M104.546,379.261c6.9,0,12.5-6.122,12.5-13.679v-18.24c0-7.557-5.6-13.679-12.5-13.679s-12.5,6.122-12.5,13.679v18.24C92.045,373.139,97.643,379.261,104.546,379.261Z" transform="translate(-92.045 -151.272)" fill="#f5f5f5"/>
        <path id="Tracé_178-2" data-name="Tracé 178" d="M139.063,379.261c6.9,0,12.5-6.122,12.5-13.679v-18.24c0-7.557-5.6-13.679-12.5-13.679s-12.5,6.122-12.5,13.679v18.24C126.562,373.139,132.158,379.261,139.063,379.261Z" transform="translate(-76.558 -151.272)" fill="#f5f5f5"/>
        <path id="Tracé_179-2" data-name="Tracé 179" d="M173.58,379.261c6.9,0,12.5-6.122,12.5-13.679v-18.24c0-7.557-5.6-13.679-12.5-13.679s-12.5,6.122-12.5,13.679v18.24C161.079,373.139,166.675,379.261,173.58,379.261Z" transform="translate(-61.071 -151.272)" fill="#f5f5f5"/>
        <path id="Tracé_180-2" data-name="Tracé 180" d="M104.546,436.789c6.9,0,12.5-6.122,12.5-13.679V404.87c0-7.557-5.6-13.679-12.5-13.679s-12.5,6.122-12.5,13.679v18.24C92.045,430.667,97.643,436.789,104.546,436.789Z" transform="translate(-92.045 -117.604)" fill="#f5f5f5"/>
        <path id="Tracé_181-2" data-name="Tracé 181" d="M139.063,436.789c6.9,0,12.5-6.122,12.5-13.679V404.87c0-7.557-5.6-13.679-12.5-13.679s-12.5,6.122-12.5,13.679v18.24C126.562,430.667,132.158,436.789,139.063,436.789Z" transform="translate(-76.558 -117.604)" fill="#f5f5f5"/>
        <path id="Tracé_182-2" data-name="Tracé 182" d="M173.58,436.789c6.9,0,12.5-6.122,12.5-13.679V404.87c0-7.557-5.6-13.679-12.5-13.679s-12.5,6.122-12.5,13.679v18.24C161.079,430.667,166.675,436.789,173.58,436.789Z" transform="translate(-61.071 -117.604)" fill="#f5f5f5"/>
      </g>
      <path id="Tracé_191" data-name="Tracé 191" d="M173.58,264.2c6.9,0,12.5-6.122,12.5-13.679v-18.24c0-7.557-5.6-13.679-12.5-13.679s-12.5,6.122-12.5,13.679v18.24C161.079,258.081,166.675,264.2,173.58,264.2Z" transform="translate(-5381.186 -2891.631)" fill="#f5f5f5"/>
      <path id="Tracé_192" data-name="Tracé 192" d="M173.58,321.733c6.9,0,12.5-6.122,12.5-13.679v-18.24c0-7.557-5.6-13.679-12.5-13.679s-12.5,6.122-12.5,13.679v18.24C161.079,315.609,166.675,321.733,173.58,321.733Z" transform="translate(-5381.186 -2858.578)" fill="#f5f5f5"/>
      <path id="Tracé_193" data-name="Tracé 193" d="M173.58,379.261c6.9,0,12.5-6.122,12.5-13.679v-18.24c0-7.557-5.6-13.679-12.5-13.679s-12.5,6.122-12.5,13.679v18.24C161.079,373.139,166.675,379.261,173.58,379.261Z" transform="translate(-5381.186 -2842.526)" fill="#f5f5f5"/>
      <path id="Tracé_194" data-name="Tracé 194" d="M173.58,379.261c6.9,0,12.5-6.122,12.5-13.679v-18.24c0-7.557-5.6-13.679-12.5-13.679s-12.5,6.122-12.5,13.679v18.24C161.079,373.139,166.675,379.261,173.58,379.261Z" transform="translate(-5381.186 -2749.847)" fill="#f5f5f5"/>
      <rect id="Rectangle_17" data-name="Rectangle 17" width="116" height="71" transform="translate(-5553 -3046)" fill="#fcc468"/>
    </g>
  </g>
</svg>
