<svg xmlns="http://www.w3.org/2000/svg" width="1250" height="799.702" viewBox="0 0 1250 799.702">
  <g id="Groupe_3" data-name="Groupe 3" transform="translate(-106 -38)">
    <rect id="Rectangle_2" data-name="Rectangle 2" width="1250" height="799.702" transform="translate(106 38)" fill="#fff"/>
    <g id="Groupe_2" data-name="Groupe 2" transform="translate(179.943 372.702)">
      <g id="Groupe_1" data-name="Groupe 1" transform="translate(681.072)">
        <path id="Tracé_1" data-name="Tracé 1" d="M18.914,369.529l-4.063-26.5c-.774-4.519-.678-9.428-2.328-13.555q0-1.547-.008-3.1,1.435-3.093,2.87-6.186.258.127.371-.269l7.1-5.033,1.374-.6a5.6,5.6,0,0,0,4.371-1.6l1.4-.36c1.289.535,2.462-.352,3.675-.768a7.586,7.586,0,0,0,4.883-.908,7.467,7.467,0,0,0,4.458-.395l3.455-.218a5.8,5.8,0,0,0,5.1-.867l4.935-.293a36.253,36.253,0,0,0,13.1-1.365l1.226-.015a13.536,13.536,0,0,0,8.647-.893l7.943-.735,2.147.112c.978.4,1.95.7,2.852-.38,1.485.042,2.981.338,4.426-.518a5.2,5.2,0,0,0,4.2-.251c4.557-.1,9.127.157,13.643-1.186a9.721,9.721,0,0,0,4.443-3.864l.637-.548a10.217,10.217,0,0,0,4.365-5.375l1.278-1.9a21.758,21.758,0,0,0,4.115-5.8q.328-.118.359-.66a15.834,15.834,0,0,0,4.1-6.252l.867-.831a11.2,11.2,0,0,0,3.44-4.96,6.628,6.628,0,0,0,2.257-3.277,3.169,3.169,0,0,0,1.55-2.291c7.484-10.61,14.919-21.312,22.475-31.786,2.852-3.953,5.148-9.12,8.9-11.236l4.293-1.267,4.228-.352a37.461,37.461,0,0,0,13.082-1.21l1.257-.006c3.861.335,7.71.368,11.511-1.03l1.392-.157a4.632,4.632,0,0,0,4.426-.277l2.1-.076c3.96.17,7.943,1.061,11.835-.975l12.569-.425a5.9,5.9,0,0,0,4.308-.1l4.271-.1,2.2.11c4.053.538,8.1.842,12.137-.343l3.6-.134a4.089,4.089,0,0,0,5,.14l4.33-.014c4.291,1.287,8.6.956,12.916.425l5.022.053.688.059c2.491.813,5.007.52,7.519.439,1.325,1.842,2.953,1.033,4.439,1.2,4.725.545,9.481.676,13.91,3.922,8.373,8.8,14.752,21.182,21.957,32.066,8.178,12.354,16.136,25.089,24.2,37.643a9.119,9.119,0,0,0,3.929,3.842,3.87,3.87,0,0,0,3.46,2.488c4.61.822,9.226,1.782,13.887,1.239l2.82.328a12.773,12.773,0,0,0,6.486.946l4.257.321a6.683,6.683,0,0,0,4.356.7l4.231.644a4.51,4.51,0,0,0,4.34.806c6.22,1.648,12.514,2.73,18.5,6.209l-.045-.079c.6,2.668-.38,5.2-.253,7.827a8.4,8.4,0,0,0-.732,4.82l-.133,2.258a16.935,16.935,0,0,0-.817,6.924,23.5,23.5,0,0,0-.9,6.9,15.827,15.827,0,0,0-.891,7.13,29.167,29.167,0,0,0-.979,7.959,3.015,3.015,0,0,0-.536,2.341c-.492,3.8-1.267,7.533-1.138,11.495a.573.573,0,0,0-.155.629,5.392,5.392,0,0,0-.637,4.2l-.293,3.336a34.137,34.137,0,0,0-1.428,10.507,31.66,31.66,0,0,1-1.83,7.559c-1.295,1.321-2.064,3.383-2.9,5.356-1.965,1.963-3.948,3.864-6.22,4.788a25.478,25.478,0,0,0-8.645,3.23l-2.873,1.059-4.479.617c-.224-1.9-.172-3.935-.975-5.576a16.57,16.57,0,0,0-1.009-6.718c-1.958-5.993-2.376-13.132-5.264-18.43a3.855,3.855,0,0,0-.969-2.98q-.253-.486-.5-.975a23.015,23.015,0,0,0-4-7.882l-.54-.823c-1.238-2.511-2.551-4.876-4.487-6.033-3.863-4.708-8.171-7.756-12.956-9.006a1.483,1.483,0,0,0-2.151-.325l-2.855-.66c-2.893-1.664-5.756-.741-8.617.269a8.387,8.387,0,0,0-4.94.892c-3.338.609-6.584,1.684-9.425,4.824-7.7,5.361-13.25,14.078-16.173,26.917-2.235,6.413-2.535,13.5-2.753,20.617l-.091.264c-.753,2.468-2.123,4.041-3.288,5.911a.6.6,0,0,0-.572.272c-4.654,2.7-9.588,1.083-14.331,2.421l-1.489,0a8.946,8.946,0,0,0-5.762.088l-4.915.008a5.526,5.526,0,0,0-4.417.074l-4.174.039a6.23,6.23,0,0,0-4.438.013l-4.872.083a5.515,5.515,0,0,0-4.468.069l-3.414.036c-9.415-.786-18.831-.216-28.245,0-7.365.17-14.749-.593-22.093.961a5.961,5.961,0,0,0-4.165.051,5.074,5.074,0,0,0-4.466.088,6.912,6.912,0,0,0-4.871.149,5.175,5.175,0,0,0-4.423-.034,4.672,4.672,0,0,0-4.149.059,4.72,4.72,0,0,0-4.5.035,7.312,7.312,0,0,0-4.9.146,3.087,3.087,0,0,0-3.648-.017c-.231-.254-.447-.225-.647.09a2.356,2.356,0,0,0-2.886.141c-.688-1.507-1.446-.7-2.194-.17a4.172,4.172,0,0,0-3.531.126,8.569,8.569,0,0,0-5.029.036,3.788,3.788,0,0,0-4.3.047,6.692,6.692,0,0,0-4.307.087,56.217,56.217,0,0,0-17.887.124l-4.369.071c-.472-.7-.928-.923-1.343.115l-3.562.215a4.337,4.337,0,0,0-4.416,0l-4.348.222a4.78,4.78,0,0,0-4.144-.025l-5.057-3.533c-.324-1.027-.907-.814-1.451-.788a4.826,4.826,0,0,0-2.2-3.373,9.828,9.828,0,0,0-1.94-4.023l-.521-2.9a12.573,12.573,0,0,0-1.436-6.668c.138-1.666-.645-2.643-1.109-3.859-1.139-5.29-1.947-10.816-4.2-15.316-3.229-9.215-7.176-17.194-13.7-20.74-.14-1.615-.821-1.2-1.445-1.006-.564-1.154-.931-2.8-2.169-2.287l-1.716-.367c-.962-1.627-2.171-1.488-3.4-1.242l-2.113-.321c-.431-.88-.873-.858-1.323-.039l-1.458.405a6.357,6.357,0,0,0-4.988.211c-.99-.609-1.9-.458-2.71.722a20.89,20.89,0,0,0-8.087,3.2,6.091,6.091,0,0,0-3.468,2.487,28.363,28.363,0,0,0-10.024,12.354c-2.357,3.238-3.713,7.478-4.662,12.127-1.838,3.939-1.805,8.818-2.562,13.3q-.014,5.2-.029,10.391c-.422,3.448-2.585,4.4-3.74,6.8l.024.022c-1.442.3-2.734-.058-3.624-2.166-.71-2.882-.439-6.273-1.76-8.839l-.412-2.7a20.436,20.436,0,0,0-.906-5.91l-.582-4.482a27.114,27.114,0,0,0-1.407-8.127l-.336-2.21A26.46,26.46,0,0,0,18.914,369.529Zm226-75.514c.511.645,1.06,1,1.707.551a1.621,1.621,0,0,0,2.226.281l4.867.022a6.412,6.412,0,0,0,4.456-.022l4.866.022a4.72,4.72,0,0,0,3.739-.022l4.866.022a6.412,6.412,0,0,0,4.456-.022l4.866.022a4.72,4.72,0,0,0,3.739-.022l4.866.022a6.412,6.412,0,0,0,4.456-.022l4.866.022a4.72,4.72,0,0,0,3.739-.022l4.866.022a6.412,6.412,0,0,0,4.456-.022l4.866.022,3.645.125c1.71.335,3.449,1.058,4.985-.96L326.875,293c1.8-.911,2.345-2.487,1.023-5.048a9.232,9.232,0,0,0-1.77-3.971c.038-.925-.293-1.34-.8-1.511-3.18-7.638-6.691-14.866-10.375-21.882-.844-2.455-1.662-4.943-3.139-6.616l-.039-.078a27.6,27.6,0,0,0-3.5-7.671.716.716,0,0,0-.27-.629,21.082,21.082,0,0,0-2.809-5.815c-.574-1.837-1.261-3.489-2.574-4.121-.659-1.863-1.676-2.68-2.979-2.666-.765-1.461-1.8-1.314-2.826-1.245-.713-.816-1.441-.969-2.191-.131a10.9,10.9,0,0,0-5.672-.056,2.143,2.143,0,0,0-2.932.059,11.316,11.316,0,0,0-5.672-.059,2.143,2.143,0,0,0-2.932.059,14,14,0,0,0-6.39-.059,2.143,2.143,0,0,0-2.932.059,11.316,11.316,0,0,0-5.672-.059,2.143,2.143,0,0,0-2.932.059,14,14,0,0,0-6.39-.059,2.143,2.143,0,0,0-2.932.059,24.8,24.8,0,0,0-4.221-.266c-2.045.2-4.12.631-4.2,5.143-.641,15.885-.153,31.787-.244,47.68-.01,1.842-.32,3.876.649,5.457.3,2.441,1.351,3.651,2.733,4.307Zm-43.434-60.882-1.491.1a8.291,8.291,0,0,0-4.972.094l-3.644.08a8.194,8.194,0,0,0-4.911.132c-2.191-.28-4.408-1.092-6.491.824a3.646,3.646,0,0,0-2.953,1.935c-1.329.405-2.317,1.572-2.979,3.472l-1.348,2.252a9.362,9.362,0,0,0-2.948,4.7l-1.356,2.243c-1.393.9-2.22,2.714-2.929,4.72a6.574,6.574,0,0,0-2.106,3.344,7.218,7.218,0,0,0-2.176,3.618c-5.335,8.489-10.7,16.932-15.981,25.509-1.025,1.666-2.66,3.421-1.752,6.336.891,2.858,2.743,2.54,4.426,2.543,9.892.015,19.785.08,29.677.09,15.137.016,30.274.069,45.41-.039,4.736-.035,7.335-4.674,7.294-12.369a16.607,16.607,0,0,0,.018-5.712,31.255,31.255,0,0,0,.07-8.113,15.236,15.236,0,0,0,.012-7.02,31.223,31.223,0,0,0-.094-8.1,16.784,16.784,0,0,0,.012-5.708,23.948,23.948,0,0,0-.109-8.164c-.065-3.274-.908-5.644-2.951-6.623-1.522-1.775-3.22-1.341-4.909-1.026a5.272,5.272,0,0,0-4.447.185l-4.124.243A28.726,28.726,0,0,0,201.481,233.133Z" transform="translate(-12.514 -129.526)" fill="#51bcda" stroke="#51bcda" stroke-width="1"/>
        <path id="Tracé_2" data-name="Tracé 2" d="M425.274,444.194l-4.945.01a6.132,6.132,0,0,0-4.377-.009l-4.945.009a4.476,4.476,0,0,0-3.66-.009l-4.945.009a6.132,6.132,0,0,0-4.377-.009l-4.945.009a4.475,4.475,0,0,0-3.66-.009l-4.945.009a6.132,6.132,0,0,0-4.377-.009l-4.945.009a4.475,4.475,0,0,0-3.66-.009l-4.945.009a6.13,6.13,0,0,0-4.376-.009l-4.946.009a4.472,4.472,0,0,0-3.658-.009l-4.946.009a6.128,6.128,0,0,0-4.375-.009l-4.946.009a4.472,4.472,0,0,0-3.658-.009l-4.946.009a6.128,6.128,0,0,0-4.375-.009l-4.946.009a4.472,4.472,0,0,0-3.658-.009l-4.946.009a6.128,6.128,0,0,0-4.375-.009l-4.946.009a4.472,4.472,0,0,0-3.658-.009l-4.946.009a6.128,6.128,0,0,0-4.375-.009l-4.946.009a4.472,4.472,0,0,0-3.658-.009l-4.946.009a6.128,6.128,0,0,0-4.375-.009l-4.946.009a4.472,4.472,0,0,0-3.658-.009L259,444.2a6.128,6.128,0,0,0-4.375-.009l-4.946.009a4.472,4.472,0,0,0-3.658-.009l-4.946.009a6.128,6.128,0,0,0-4.375-.009l-4.946.009a4.472,4.472,0,0,0-3.658-.009l-4.946.009a6.128,6.128,0,0,0-4.375-.009l-4.946.009a4.472,4.472,0,0,0-3.658-.009l-4.946.009a6.128,6.128,0,0,0-4.375-.009l-4.946.009a4.472,4.472,0,0,0-3.658-.009l-4.946.009a6.128,6.128,0,0,0-4.375-.009l-4.945.009a4.474,4.474,0,0,0-3.659-.009l-4.945.009a6.132,6.132,0,0,0-4.377-.009l-4.945.009a4.474,4.474,0,0,0-3.659-.009l-4.945.009a6.132,6.132,0,0,0-4.377-.009l-4.945.009a4.474,4.474,0,0,0-3.659-.009l-4.945.009a6.132,6.132,0,0,0-4.377-.009l-4.945.009a4.474,4.474,0,0,0-3.659-.009l-4.945.009a6.132,6.132,0,0,0-4.377-.009l-4.945.009a4.474,4.474,0,0,0-3.659-.009l-4.945.009a6.132,6.132,0,0,0-4.377-.009l-4.912-.069a4.262,4.262,0,0,0-3.725-.009l-4.912.088a6.132,6.132,0,0,0-4.377-.009l-4.945.009a4.472,4.472,0,0,0-3.658-.009l-4.945.009a6.132,6.132,0,0,0-4.377-.009l-4.945.009a4.472,4.472,0,0,0-3.658-.009l-4.945.009a6.132,6.132,0,0,0-4.377-.009l-4.945.009A4.474,4.474,0,0,0,30.9,444.2l-4.945.009a6.174,6.174,0,0,0-4.376-.015c-2.744-.123-5.041-1.394-6-6.1l.5-6.873,1.313-2.293,1.334-.72,2.2-.812,4.968-.022,4.355-.036,4.25.036,4.355-.036a9.948,9.948,0,0,0,5.328-.039l8.087.59c-2.071-2.918-3.181-5.014-4.848-6.022-.92-1.6-1.4-3.825-2.7-4.879a6.387,6.387,0,0,0-1.55-3.476c-.912-4.423-3.727-7.414-3.635-12.591a10.541,10.541,0,0,0-.518-4.524q.031-7.631.062-15.264a.748.748,0,0,0-.009-.867.55.55,0,0,0,.175-.639,6.928,6.928,0,0,0,.729-4.3A52.457,52.457,0,0,1,42.818,365.2a15.942,15.942,0,0,0,2.669-5.617l-.009-.03,4.6-6.836,1.034-1.277a4.4,4.4,0,0,0,2.3-2.391l9.028-5.475,3.65-.735,4.261,0,4.382.751L83.83,349a3.979,3.979,0,0,0,2.272,2.282l1.111,1.33,3.892,5.629.6,1.135,3.067,6.807a13.907,13.907,0,0,0,1.785,5.539l.1.156,1.458,7.225q.225,3.374.45,6.747-.054,4.067-.106,8.136-.374,3.484-.749,6.969c-.8,4.828-2.523,8.958-3.866,13.376q-.7,1.318-1.4,2.635l-2.687,4.946-4.04,4.852.3,1.079,6.607-.489a10.348,10.348,0,0,0,5.685-.059,4.6,4.6,0,0,0,3.643.042,7.561,7.561,0,0,0,4.623-.042,5.207,5.207,0,0,0,3.981.042l4.967.036,4.355-.036,4.25.036,4.355-.036,4.967.036,4.355-.036,4.25.036,4.355-.036,4.967.036,4.355-.036,4.25.036,4.355-.036,4.967.036,4.355-.036,4.25.036,4.355-.036,4.967.036,4.355-.036,4.25.036,4.355-.036,4.967.036,4.355-.036,4.25.036,4.355-.036,4.967.036,4.355-.036,4.25.036,4.355-.036,4.967.036,4.355-.036,4.25.036,4.355-.036,4.967.036,4.355-.036,4.25.036,4.355-.036,4.967.036,4.355-.036,4.25.036,4.355-.036,4.967.036,4.355-.036,4.25.036,4.355-.036,4.967.036,4.355-.036,4.25.036,4.355-.036,4.967.036,4.355-.036,4.25.035a2.176,2.176,0,0,0,2.827-.663l-2.751-2.8-.7-1.049a12.223,12.223,0,0,0-2.872-4.755q-.767-1.631-1.535-3.26l-2.96-9.288-.954-3.208.054.059-1.147-8.237a29.208,29.208,0,0,0,0-8.292q.259-3.489.52-6.977c1.046-1.511.91-3.647,1.13-5.593q.279-1.24.558-2.48a18.039,18.039,0,0,0,2.037-5.869c2.994-6.5,6.448-12.191,10.827-16.285l4.925-3.544,1.6-.746a1.607,1.607,0,0,0,2.149-.727l4.226-.816,4.355-.01,3.747.728c8.337,3.662,15.261,10.582,19.985,22.583.751,2.991,1.237,6.177,2.486,8.8a14.548,14.548,0,0,0,1,5.136q.116,1.721.233,3.443l-.049,11.633q-.112,1.716-.223,3.429a6.057,6.057,0,0,0-.679,3.493q-.5,2.032-1,4.064-1.383,4.2-2.766,8.4l-.024-.022-4.757,8.447q-.367.617-.732,1.234c-1.184.374-1.948,1.521-2.633,3.2a2.156,2.156,0,0,0,2.64-.085l5.662.053,4.354-.036,4.251.036,4.354-.036,4.968.036,4.354-.036,4.251.036,4.354-.036,4.968.036,4.354-.036,3.551.257,3.458,3.744q.4,2.728.8,5.457c-.721,2.236-1.355,4.564-2.573,6.27l-.947.8ZM79.825,402.259h-.02a21.584,21.584,0,0,0,3.1-11.869l-.028-3.253c-.244-7.128-2.309-12.467-6.081-16.126-.6-.885-1.244-1.573-2.1-1.512a3.748,3.748,0,0,0-3.636-2c-3.394-2.005-6.423-.332-9.347,2.411l-.689.77c-2.13,1.157-3.4,3.763-4.413,6.81l-.014.036a16.8,16.8,0,0,0-1.9,8.377q-1.15,9.59,3.069,16.592c.817,2.8,2.2,4.483,4.013,5.318,4.533,4.166,9.07,4.294,13.612.035C77.432,407.145,78.9,405.253,79.825,402.259Zm290.384.116q.661-.255.623-1.352c5.872-13.516.959-31.157-9.3-33.389-1.192-.807-2.39-1.326-3.615-.159-7.595.492-13.154,10.474-13,22.7.134,10.532,6.961,22.65,15.041,20.346a2.826,2.826,0,0,0,4.029-1.085c.644.007,1.091-.412,1.233-1.49.6.163,1.187.291,1.318-1.061C368.358,406.64,369.421,404.8,370.21,402.375Z" transform="translate(-13.383 -109.907)" fill="#51bcda"/>
        <path id="Tracé_3" data-name="Tracé 3" d="M124.729,207.295q1-1.186,2-2.375l4.422-3.81,1.337-.748a2.19,2.19,0,0,0,2.452-1.115l.176.138.148-.2,5.045-.175,8.672,4.265c7.3,7.767,10.867,18.448,9.788,32.747-1.091,1.531-1.189,3.64-1.285,5.752q-.271,1.209-.541,2.419l-2.386,5.674c-4.01,7.124-9.073,10.78-14.929,11.838l-4.428-.443-4.213-1.781c-2.756-3-5.757-5.451-8.034-9.5-.1-.787-.389-1.239-.887-1.33l-1.03-1.7a7.372,7.372,0,0,0-1-3.981l-.9-4.488q-.426-5.332-.853-10.667.17-1.714.341-3.429,1.227-5.1,2.454-10.2l1.253-2.658A8.884,8.884,0,0,0,124.729,207.295Z" transform="translate(-42.442 -132.605)" fill="#f17e5d"/>
        <path id="Tracé_4" data-name="Tracé 4" d="M347,165.258a54.739,54.739,0,0,1,4.633-13.71,7.414,7.414,0,0,0,2.5-3.619l7.274-5.4,4.215-.876q2.463.452,4.925.9l4.124,2.144.009.076c1.134,2.324,2.906,3.067,4.365,4.586l.675.961,3.549,7.243a1.082,1.082,0,0,0,.133.775c0,2.644.994,4.687,1.627,6.948q.215,3.92.429,7.842-.1,1.275-.2,2.548L385,177.96c-.041.384-.082.77-.123,1.154a52.41,52.41,0,0,1-5.176,13.535,5.051,5.051,0,0,0-1.96,2.651c-9.788,8.612-17.824,7.713-25.344-2.642-1.4-1.923-2.178-4.483-3.29-6.688l-1.955-6.9-.5-6.811Z" transform="translate(-107.063 -141.656)" fill="#fcc468"/>
        <path id="Tracé_5" data-name="Tracé 5" d="M497.844,203.827a31.356,31.356,0,0,1-5.01,8.274l-4.709,3.831-3.848,1.225a4.333,4.333,0,0,0-3.748.074l-4.257-1.627-4.3-3.662c-2.928-3.288-4.705-8.131-6.627-12.78q-.461-3.39-.922-6.78.054-4.189.106-8.377.636-3.2,1.271-6.4a7.22,7.22,0,0,0,1.262-3.764q1.212-2.291,2.423-4.583a3.812,3.812,0,0,0,1.811-2.394c1.549-1.323,3.222-2.327,4.428-4.526l-.016.027a6.829,6.829,0,0,0,4.917-1.312l3.572,0q2.506.981,5.011,1.959c.843,1.019,1.786.481,2.7.44.306,4.1,2.75,4.951,4.227,7.271l1.581,3.154a1.748,1.748,0,0,0,.2,1.029l.591,1.243.047-.118,1.841,7.948a20.576,20.576,0,0,0,.247,7.131q-.561,3.965-1.122,7.93A9.027,9.027,0,0,0,497.844,203.827Z" transform="translate(-140.386 -138.595)" fill="#6bd098"/>
        <path id="Tracé_6" data-name="Tracé 6" d="M47.387,261.784l-.7-.284q-2.475-6.383-4.949-12.766-.373-4.041-.748-8.083l.663-6.984c4.664-18.884,14.945-24.7,27.229-15.416q.715.858,1.43,1.719l3.587,5.8-.027-.044c.217,3.03,1.591,5.238,2.181,8q.264,4.12.526,8.239-.323,3.369-.645,6.74a14.009,14.009,0,0,0-1.794,5.956,39.568,39.568,0,0,1-5.255,8.892,9.408,9.408,0,0,0-4.267,3.353l-1.412.327-.7.167-2.045.637A6.338,6.338,0,0,0,56,268.007l-4.92-2.4Z" transform="translate(-20.572 -130.253)" fill="#6bd098"/>
        <path id="Tracé_7" data-name="Tracé 7" d="M505.981,237.229q.256-2.2.512-4.4,1.111-3.626,2.224-7.254l1.645-3.23a3.325,3.325,0,0,0,1.589-2.284l1.978-2.4,4.327-2.922,1.284-.329a1.387,1.387,0,0,0,2.193-.494l1.4-.27a6.793,6.793,0,0,0,4.464.991l3.441,2.174c.7,1.062,1.453,1.979,2.461,2.112q1.025,1.565,2.051,3.131c.464,2.179,1.614,3.462,2.531,5.049,4.82,15.122.886,28.91-6.183,35.914a5.65,5.65,0,0,0-3.706,2.771l-4.887,1.033-4.394-.747-4.878-3.094c-.108-.815-.413-1.233-.939-1.2q-1.387-1.883-2.776-3.766l-1.77-3.491-1.816-5.743Q506.358,243,505.981,237.229Z" transform="translate(-152.147 -130.295)" fill="#fcc468"/>
        <path id="Tracé_8" data-name="Tracé 8" d="M584.495,248.873l1.388,2.16q.88,2.867,1.759,5.732.117,1.08.235,2.16c-.212,4.248-.229,8.559-1.527,12.459a5.893,5.893,0,0,0-1.9,3.367l-4.282,3.67-.037-.028q-2.087.264-4.174.523l-2.5-.533q-.85-.578-1.7-1.158a21.654,21.654,0,0,1-5.924-12.357q.032-3.527.064-7.052c.784-5.348,3.2-8.555,5.8-11.517a2.792,2.792,0,0,0,2.548-1.832l.764-.188c.526.577,1.067.815,1.651.212l4.293.925A10.819,10.819,0,0,0,584.495,248.873Z" transform="translate(-169.084 -125.459)" fill="#51bcda"/>
        <path id="Tracé_9" data-name="Tracé 9" d="M30.018,266.418a22.749,22.749,0,0,1,6.462,8.973q.47,3.467.941,6.932-.55,4-1.1,7.991a10.214,10.214,0,0,0-1.97,4.291l-3.554,3.85.027-.029-1.348.692a1.4,1.4,0,0,0-2.183.709l-1.411.191-4.317-1.683c-5.523-2.752-7.67-13.355-5.544-22.953a5.9,5.9,0,0,0,1.413-3.25l1.373-2.258,2.687-2.709,4.261-1.512Z" transform="translate(-13.279 -122.087)" fill="#f17e5d"/>
        <path id="Tracé_10" data-name="Tracé 10" d="M324.3,181.311q.24,1.685.48,3.369c-.337,3.888-.207,7.918-1.354,11.559-.267.593-.533,1.184-.8,1.78a14.371,14.371,0,0,1-9.093,5.283c-5.033-1.116-7.391-6.67-8.789-13.816q.2-3.434.392-6.867a.545.545,0,0,0,.144-.634q1.291-3.114,2.585-6.223l2.161-2.312a5.893,5.893,0,0,0,3.538-1.673l4.952,1.074C320.951,174.773,322.7,177.921,324.3,181.311Z" transform="translate(-95.205 -136.903)" fill="#51bcda"/>
        <path id="Tracé_11" data-name="Tracé 11" d="M200.324,230.563l-1.415.259c-2.627-.792-5.326-1.208-7.616-3.777l-.045-.063-2.586-7.568-.1-5.805q1.067-3.312,2.132-6.623c.16-.015.277-.137.352-.365l4.375-4.037,1.263-.23,3.7.447,4.249,3.785,0,.044,2.426,6.986q-.21,3.984-.419,7.968l-1.97,4.665-.015.024Z" transform="translate(-62.328 -132.076)" fill="#6bd098"/>
        <path id="Tracé_12" data-name="Tracé 12" d="M445.247,188q.467,4.015.933,8.028-.561,2.8-1.121,5.595c-2.622,5.031-5.642,8.073-10,6.312-5.294-2.142-7.416-7.854-6.438-18.1q.839-2.053,1.683-4.106c2.2-3.348,4.806-5,7.829-4.922l1.378.379q1.776,1.422,3.552,2.842A10.1,10.1,0,0,0,445.247,188Z" transform="translate(-130.193 -135.478)" fill="#f17e5d"/>
        <path id="Tracé_13" data-name="Tracé 13" d="M90.925,257.041q.365-1.063.73-2.127c5.061-6.669,7.84-6.926,13.5-1.247q.655,1.737,1.311,3.475l.566,6.981c-2.117,11.48-9.387,14.13-14.023,7.431A18.1,18.1,0,0,1,90.5,264.11Q90.712,260.576,90.925,257.041Z" transform="translate(-34.581 -124.613)" fill="#51bcda"/>
      </g>
      <rect id="Rectangle_1" data-name="Rectangle 1" width="1101.928" height="16" rx="8" transform="translate(0 318)" fill="#51bcda"/>
    </g>
  </g>
</svg>
